<svg height='100px' width='100px'  fill="#000000" xmlns:x="http://ns.adobe.com/Extensibility/1.0/" xmlns:i="http://ns.adobe.com/AdobeIllustrator/10.0/" xmlns:graph="http://ns.adobe.com/Graphs/1.0/" xmlns="http://www.w3.org/2000/svg" xmlns:xlink="http://www.w3.org/1999/xlink" version="1.1" x="0px" y="0px" viewBox="0 0 100 100" style="enable-background:new 0 0 100 100;" xml:space="preserve"><g><g i:extraneous="self"><g><g><path d="M84.1,14.9C83,10.7,80,7.1,76.2,5.1C65.4-0.6,54.7,3.7,50,11.9C45.3,3.7,34.6-0.6,23.8,5.1c-3.8,2-6.8,5.6-7.9,9.7      c-5.6,21,25.6,34.9,32.7,45.8c0.6,1,2.2,1,2.8,0C58.5,49.7,89.6,35.9,84.1,14.9z"></path></g><g><path d="M39.1,67.1L25.2,54.4c-0.6-0.6-1.4-0.9-2.3-0.8c-0.9,0-1.6,0.4-2.2,1.1c-1,1.1-1.1,2.7-0.3,3.9l0.4,0.6      c2.3,3.4,4.8,6.6,7.6,9.6l2.6,2.8c0.4,0.4,0.6,1,0.6,1.5c0,0.6-0.3,1.1-0.7,1.5c-0.4,0.4-1,0.6-1.5,0.6c-0.6,0-1.1-0.3-1.5-0.7      l-2.5-2.6c-3.1-3.3-5.9-6.8-8.4-10.6l-0.3-0.4c-1.8-2.8-1.6-6.5,0.6-9c0.2-0.2,0.4-0.4,0.6-0.6l-5.8-10.8c-0.7-1.2-2-2-3.4-2      c-1.1,0-2,0.5-2.7,1.3c-0.7,0.8-1,1.8-0.9,2.9l3.8,29.2c0.4,2.7,1.7,5.2,3.9,6.9l11.1,9c0.7,0.6,1.1,1.3,1.2,2.2l1,7.5h19.1      l-3.4-25C41.7,70.4,40.6,68.5,39.1,67.1z"></path></g><g><path d="M93.9,39.8c-0.7-0.8-1.7-1.3-2.7-1.3c-1.4-0.1-2.8,0.7-3.4,2L82,51.2c0.2,0.2,0.4,0.4,0.6,0.6c2.2,2.5,2.4,6.2,0.6,9      l-0.3,0.4c-2.5,3.8-5.3,7.3-8.4,10.6l-2.5,2.6c-0.4,0.4-0.9,0.7-1.5,0.7c-0.6,0-1.1-0.2-1.5-0.6c-0.4-0.4-0.7-0.9-0.7-1.5      c0-0.6,0.2-1.1,0.6-1.5l2.6-2.8c2.8-3,5.4-6.2,7.6-9.6l0.4-0.6c0.8-1.2,0.7-2.8-0.3-3.9c-0.6-0.6-1.4-1-2.2-1.1      c-0.9,0-1.7,0.3-2.3,0.8L60.9,67.1c-1.5,1.4-2.5,3.3-2.9,5.3l-3.4,25h19.1l1-7.5c0.1-0.9,0.6-1.7,1.2-2.2l11.1-9      c2.1-1.7,3.5-4.2,3.9-6.9l3.8-29.2C94.9,41.6,94.6,40.6,93.9,39.8z"></path></g></g></g></g></svg>