<svg height='100px' width='100px'  fill="#000000" xmlns="http://www.w3.org/2000/svg" xmlns:xlink="http://www.w3.org/1999/xlink" version="1.1" x="0px" y="0px" viewBox="0 0 512 512" enable-background="new 0 0 512 512" xml:space="preserve"><g><path d="M423.8,408l-177.1-88.6v-55.8l80.6,80.6c3.7,3.7,8.5,5.5,13.3,5.5c4.8,0,9.6-1.8,13.3-5.5c7.3-7.3,7.3-19.2,0-26.5L260,224   c-3.5-3.5-8.3-5.5-13.3-5.5h-37.6l0,0h-11l-56.2-56.3l61.7-61.7c7.3-7.3,7.3-19.2,0-26.5c-7.3-7.3-19.2-7.3-26.5,0l-75,75   c-7.3,7.3-7.3,19.2,0,26.5l69.5,69.5v67.2h-75c-10.4,0-18.7,8.4-18.7,18.8v93.7c0,10.4,8.4,18.7,18.7,18.7   c10.4,0,18.7-8.4,18.7-18.7v-75h108.1L407,441.5c2.7,1.3,5.6,2,8.4,2c6.9,0,13.5-3.8,16.8-10.4C436.8,423.9,433,412.6,423.8,408z"></path><path d="M190.4,162.3c0,20.7,16.8,37.5,37.5,37.5c20.7,0,37.5-16.8,37.5-37.5c0-20.7-16.8-37.5-37.5-37.5   C207.2,124.8,190.4,141.5,190.4,162.3z"></path></g></svg>