<svg height='100px' width='100px'  fill="#000000" xmlns="http://www.w3.org/2000/svg" xmlns:xlink="http://www.w3.org/1999/xlink" viewBox="0 0 22 22" x="0px" y="0px"><defs><path id="a" d="M20.1666667,15.85 L20.1666667,13.1 C20.1666667,11.0833333 18.5166667,9.25 16.5,9.25 L11.9166667,9.25 L11.9166667,6.31666667 C13.0166667,5.95 13.75,4.94166667 13.75,3.75 C13.75,2.19166667 12.5583333,1 11,1 C9.44166667,1 8.25,2.19166667 8.25,3.75 C8.25,4.94166667 8.98333333,5.95 10.0833333,6.31666667 L10.0833333,9.25 L5.5,9.25 C3.48333333,9.25 1.83333333,11.0833333 1.83333333,13.1 L1.83333333,15.85 C0.733333333,16.2166667 0,17.225 0,18.4166667 C0,19.975 1.19166667,21.1666667 2.75,21.1666667 C4.30833333,21.1666667 5.5,19.975 5.5,18.4166667 C5.5,17.225 4.76666667,16.2166667 3.66666667,15.85 L3.66666667,13.1 C3.66666667,12.0916667 4.49166667,11.0833333 5.5,11.0833333 L10.0833333,11.0833333 L10.0833333,15.85 C8.98333333,16.2166667 8.25,17.225 8.25,18.4166667 C8.25,19.975 9.44166667,21.1666667 11,21.1666667 C12.5583333,21.1666667 13.75,19.975 13.75,18.4166667 C13.75,17.225 13.0166667,16.2166667 11.9166667,15.85 L11.9166667,11.0833333 L16.5,11.0833333 C17.5083333,11.0833333 18.3333333,12.0916667 18.3333333,13.1 L18.3333333,15.85 C17.2333333,16.2166667 16.5,17.225 16.5,18.4166667 C16.5,19.975 17.6916667,21.1666667 19.25,21.1666667 C20.8083333,21.1666667 22,19.975 22,18.4166667 C22,17.225 21.2666667,16.2166667 20.1666667,15.85 Z"></path></defs><use xlink:href="#a"></use></svg>