<svg height='100px' width='100px'  fill="#000000" xmlns:x="http://ns.adobe.com/Extensibility/1.0/" xmlns:i="http://ns.adobe.com/AdobeIllustrator/10.0/" xmlns:graph="http://ns.adobe.com/Graphs/1.0/" xmlns="http://www.w3.org/2000/svg" xmlns:xlink="http://www.w3.org/1999/xlink" version="1.1" x="0px" y="0px" viewBox="0 0 100 100" style="enable-background:new 0 0 100 100;" xml:space="preserve"><g><g i:extraneous="self"><g><path d="M72.5,53.8c0.2-1.2,0.3-2.5,0.3-3.8c0-12.6-10.3-22.9-22.9-22.9c-12.6,0-22.9,10.2-22.9,22.9c0,12.6,10.2,22.9,22.9,22.9     c1.5,0,3-0.1,4.5-0.5l-2.3-6.6c-0.7,0.1-1.4,0.1-2.2,0.1c-8.8,0-15.9-7.1-15.9-15.9c0-8.8,7.1-15.9,15.9-15.9     c8.8,0,15.9,7.1,15.9,15.9c0,0.5,0,1-0.1,1.5L72.5,53.8z"></path><path d="M58.2,49c-0.5-4.1-4-7.3-8.2-7.3c-4.6,0-8.3,3.7-8.3,8.3c0,4.4,3.5,8.1,7.9,8.3c-0.4-2.1,0-4.3,1.3-6     c1.5-2.1,3.8-3.3,6.3-3.3C57.6,49,57.9,49,58.2,49z"></path><path d="M94,46.5h-6.7c-1.6-17.9-15.9-32.2-33.8-33.9V6c0-1.9-1.6-3.5-3.5-3.5c-1.9,0-3.5,1.6-3.5,3.5v6.7     c-17.9,1.7-32.2,16-33.9,33.9H6c-1.9,0-3.5,1.5-3.5,3.5c0,1.9,1.6,3.5,3.5,3.5h6.7c1.7,17.9,16,32.2,33.9,33.8V94     c0,1.9,1.5,3.5,3.5,3.5c1.9,0,3.5-1.6,3.5-3.5v-6.7c2-0.2,4-0.5,5.9-1L57,79.7c-2.3,0.6-4.6,0.8-7,0.8     c-16.9,0-30.6-13.7-30.6-30.5c0-16.9,13.7-30.6,30.6-30.6c16.8,0,30.5,13.7,30.5,30.6c0,2.2-0.2,4.3-0.7,6.4l6.6,2.3     c0.4-1.7,0.7-3.4,0.9-5.2H94c1.9,0,3.5-1.6,3.5-3.5C97.5,48.1,95.9,46.5,94,46.5z"></path><path d="M82.3,73.4l6.9-3.9c1.7-0.9,1.4-3.4-0.4-4L58,54.6c-1.8-0.6-3.5,1.1-2.8,2.8l10.8,30.9c0.6,1.8,3.1,2,4,0.4l3.9-6.9     L86.1,94c0.9,0.9,2.3,0.9,3.2,0l5.3-5.3c0.9-0.9,0.9-2.3,0-3.2L82.3,73.4z"></path></g></g></g></svg>