<svg height='100px' width='100px'  fill="#000000" xmlns="http://www.w3.org/2000/svg" viewBox="0 0 64 64" x="0px" y="0px"><title>serve-dinner-hotel-business-drinking</title><path d="M59,28H47.89893A5.00837,5.00837,0,0,0,43,24H42V17.93054A8.007,8.007,0,0,0,49,10V5a3.00328,3.00328,0,0,0-3-3H36a3.00328,3.00328,0,0,0-3,3v5a8.007,8.007,0,0,0,7,7.93054V24H39a5.00837,5.00837,0,0,0-4.89893,4H29.89893A5.00837,5.00837,0,0,0,25,24H24V17.93054A8.007,8.007,0,0,0,31,10V5a3.00328,3.00328,0,0,0-3-3H18a3.00328,3.00328,0,0,0-3,3v5a8.007,8.007,0,0,0,7,7.93054V24H21a5.00837,5.00837,0,0,0-4.89893,4H5a3.00328,3.00328,0,0,0-3,3,4.00458,4.00458,0,0,0,4,4h7v1.49121A3.0132,3.0132,0,0,0,15.17578,39.376l4.0542,1.1582a5.01688,5.01688,0,0,1,2.1626,1.27246l6.14306,6.14307A4.96765,4.96765,0,0,1,29,51.48535V52a2.002,2.002,0,0,0-2,2v8h2V59H44v3h2V54a2.002,2.002,0,0,0-2-2V49.23145a4.97163,4.97163,0,0,1,.4043-1.96924L49.65948,35H58a4.00458,4.00458,0,0,0,4-4A3.00328,3.00328,0,0,0,59,28ZM36,4H46a1.0013,1.0013,0,0,1,1,1V9H35V5A1.0013,1.0013,0,0,1,36,4Zm-.90967,7H46.90967a5.99242,5.99242,0,0,1-11.81934,0ZM18,4H28a1.0013,1.0013,0,0,1,1,1V9H17V5A1.0013,1.0013,0,0,1,18,4Zm-.90967,7H28.90967a5.99242,5.99242,0,0,1-11.81934,0ZM39,26h4a3.00508,3.00508,0,0,1,2.82861,2H36.17139A3.00508,3.00508,0,0,1,39,26ZM21,26h4a3.00508,3.00508,0,0,1,2.82861,2H18.17139A3.00508,3.00508,0,0,1,21,26Zm8,31V54H44v3ZM42.56641,46.47412A6.95,6.95,0,0,0,42,49.23145V52H31v-.51465a6.95405,6.95405,0,0,0-2.05029-4.94971l-6.14307-6.14306a7.01515,7.01515,0,0,0-3.02685-1.78125l-4.0542-1.15821A1.00458,1.00458,0,0,1,15,36.49121V35h8.78406l8.049,3.65869a7.02943,7.02943,0,0,0,6.29638-.25342L44.25928,35H47.4834ZM28.61609,35H40.14075l-2.983,1.65723a5.01772,5.01772,0,0,1-4.49707.18115ZM58,33H6a2.002,2.002,0,0,1-2-2,1.0013,1.0013,0,0,1,1-1H59a1.0013,1.0013,0,0,1,1,1A2.002,2.002,0,0,1,58,33Z"></path></svg>