<svg height='100px' width='100px'  fill="#000000" xmlns="http://www.w3.org/2000/svg" xmlns:xlink="http://www.w3.org/1999/xlink" version="1.1" x="0px" y="0px" viewBox="0 0 100 100" enable-background="new 0 0 100 100" xml:space="preserve"><g><path d="M89.5,37.312h-6.461v-7.017c0-0.829-0.672-1.5-1.5-1.5h-7.961c-0.828,0-1.5,0.671-1.5,1.5v12.366H66.15v-5.205   c0-2.858-2.327-5.184-5.188-5.184c-1.932,0-3.601,1.073-4.493,2.641c-0.871-0.602-1.916-0.966-3.046-0.967   c-2.033,0.001-3.806,1.136-4.72,2.804c-0.758-0.398-1.609-0.617-2.484-0.617c-1.749,0-3.291,0.852-4.273,2.163   c-0.006,0.008-0.013,0.015-0.019,0.023c-0.106,0.144-0.204,0.291-0.296,0.445c-0.027,0.044-0.06,0.084-0.085,0.128   c-0.809-0.458-1.757-0.693-2.733-0.639c-2.463,0.136-4.408,2.041-4.689,4.407h-6.201V30.295c0-0.829-0.671-1.5-1.5-1.5h-7.961   c-0.829,0-1.5,0.671-1.5,1.5v7.017H10.5c-0.829,0-1.5,0.671-1.5,1.5v17.036c0,0.828,0.671,1.5,1.5,1.5h6.461v7.018   c0,0.828,0.671,1.5,1.5,1.5h7.961c0.829,0,1.5-0.672,1.5-1.5V51.998h5.897c-0.016,4.17,0.131,8.21,0.486,12.165   c0.015,0.169,0.063,0.329,0.137,0.477c0.445,3.458,1.969,6.716,4.342,9.284l-0.041,19.607c0,0.828,0.671,1.5,1.5,1.5   s1.5-0.672,1.5-1.5V79.17l0.046-5.832c0.003-0.401-0.154-0.787-0.438-1.07c-2.258-2.266-3.671-5.258-3.98-8.427   c-0.015-0.153-0.057-0.299-0.12-0.434c-0.208-2.427-0.322-4.897-0.388-7.4c0.619,0.253,1.295,0.401,2.005,0.401   c0.078,0,0.156-0.002,0.235-0.005c1.441-0.058,2.721-0.702,3.597-1.69c0.887,0.792,2.03,1.289,3.294,1.289   c1.426,0,2.71-0.618,3.629-1.602c0.521,0.528,1.151,0.946,1.859,1.223c-2.575,3.073-4.04,6.982-4.04,11.086v2.621   c0,0.828,0.671,1.5,1.5,1.5s1.5-0.672,1.5-1.5v-2.621c0-4.647,2.27-8.996,6.072-11.67c0.055-0.037,0.114-0.065,0.168-0.105   c0.349-0.261,0.547-0.645,0.589-1.046c0.136-0.678,0.614-2.554,0.789-3.142c0.209-0.705-0.124-1.458-0.786-1.777l-1.877-0.906   c-0.003-0.001-0.005-0.001-0.008-0.003l-1.956-0.943l-1.156-0.622c-0.708-0.345-1.18-1.045-1.229-1.826   c-0.038-0.586,0.154-1.153,0.544-1.596c0.388-0.442,0.924-0.707,1.505-0.744c0.325-0.019,0.646,0.028,0.945,0.145l2.597,1.004   c0.05,0.023,0.102,0.042,0.154,0.06l6.361,2.461l0.041,5.342l-0.045,9.534c0,5.12-1.973,9.953-5.556,13.608   c-0.274,0.28-0.429,0.657-0.429,1.05l-0.001,17.998c0,0.828,0.672,1.5,1.5,1.5s1.5-0.672,1.5-1.5l0.001-17.397   c3.864-4.162,5.984-9.556,5.984-15.247l0.039-8.241c0.005-0.054,0.015-0.105,0.015-0.16L66.2,51.998h5.878v12.367   c0,0.828,0.672,1.5,1.5,1.5h7.961c0.828,0,1.5-0.672,1.5-1.5v-7.018H89.5c0.828,0,1.5-0.672,1.5-1.5V38.812   C91,37.983,90.328,37.312,89.5,37.312z M58.773,37.456c0-1.204,0.981-2.184,2.188-2.184s2.188,0.98,2.188,2.184v5.325l-4.377-1.693   V37.456z M12,54.348V40.312h4.961v14.036H12z M24.922,62.865h-4.961v-7.018V38.812v-7.017h4.961v12.366v6.337V62.865z    M27.922,45.661h6.058c-0.051,1.118-0.109,2.243-0.136,3.337h-5.921V45.661z M40.863,51.919c-0.081,0.808-0.889,1.447-1.884,1.486   c-1.121,0.07-2.097-0.683-2.151-1.546l-0.007-0.265c0.018-2.643,0.088-5.331,0.257-8.122c0.001-0.018-0.002-0.034-0.002-0.052   c0-0.022,0.004-0.043,0.003-0.065c-0.06-1.101,0.793-2.045,1.895-2.106c0.837-0.04,1.574,0.433,1.917,1.178l0.049,1.068v6.45   c0,0.007-0.002,0.014-0.003,0.021L40.863,51.919z M48.044,50.798c0,1.216-0.919,2.204-2.05,2.204c-1.133,0-2.055-0.988-2.055-2.204   v-7.66c0-0.081-0.011-0.16-0.024-0.237l-0.045-0.992c-0.002-0.044-0.006-0.089-0.012-0.133c-0.011-0.079-0.017-0.154-0.018-0.267   c0-0.147,0.018-0.29,0.043-0.429c0.224-1.078,1.182-1.891,2.326-1.891c0.72,0,1.388,0.352,1.835,0.913v3.896V50.798z M52.07,49.789   l2.021,0.976c0.001,0.001,0.002,0.001,0.004,0.001l0.754,0.364c-0.144,0.556-0.293,1.163-0.407,1.654   c-0.308,0.14-0.642,0.218-0.991,0.218c-1.282,0-2.326-0.988-2.326-2.204c0-0.163-0.033-0.318-0.081-0.465v-1.095L52.07,49.789z    M52.906,39.335c-0.651,0.042-1.272,0.212-1.848,0.479v-0.265c0-0.018-0.005-0.035-0.006-0.053c0-0.007,0.003-0.014,0.003-0.021   c-0.001-0.011-0.01-0.141-0.011-0.151c0-0.156,0.018-0.309,0.046-0.457c0.235-1.062,1.182-1.859,2.313-1.859   c1.307,0,2.369,1.063,2.369,2.37v0.548l-0.638-0.247C54.428,39.403,53.686,39.291,52.906,39.335z M66.178,48.998l-0.025-3.337   h5.926v3.337H66.178z M80.039,62.865h-4.961V50.498v-6.337V31.795h4.961v7.017v17.036V62.865z M88,54.348h-4.961V40.312H88V54.348z   "></path><path d="M50.036,16.174c-0.007,0.063-0.007,0.127-0.005,0.191c0,0.036,0,0.072,0.003,0.107c0.005,0.055,0.017,0.109,0.028,0.164   c0.009,0.044,0.018,0.088,0.031,0.131c0.005,0.017,0.006,0.034,0.012,0.051c0.006,0.018,0.019,0.031,0.025,0.048   c0.05,0.13,0.111,0.255,0.195,0.367c0.002,0.002,0.003,0.005,0.005,0.008c0.083,0.109,0.187,0.203,0.298,0.287   c0.021,0.017,0.043,0.033,0.065,0.048c0.106,0.072,0.221,0.135,0.348,0.179c4.351,1.486,7.173,4.381,8.627,8.851   c0.004,0.011,0.012,0.019,0.016,0.03c0.047,0.134,0.111,0.26,0.193,0.375c0.007,0.01,0.013,0.021,0.021,0.031   c0.083,0.111,0.185,0.207,0.297,0.292c0.021,0.016,0.043,0.031,0.065,0.046c0.113,0.076,0.234,0.144,0.37,0.188   c0.001,0,0.002,0,0.002,0c0.121,0.039,0.249,0.053,0.378,0.06c0.028,0.002,0.057,0.014,0.084,0.014c0,0,0,0,0.001,0l0,0   c0.027,0,0.055-0.012,0.081-0.013c0.13-0.007,0.26-0.021,0.381-0.061c0.001,0,0.001,0,0.002,0c0.135-0.044,0.255-0.11,0.367-0.186   c0.024-0.017,0.048-0.033,0.071-0.051c0.111-0.084,0.211-0.178,0.293-0.288c0.009-0.012,0.016-0.026,0.024-0.039   c0.081-0.114,0.144-0.237,0.19-0.369c0.004-0.011,0.012-0.02,0.016-0.031c1.448-4.456,4.261-7.346,8.593-8.839   c0.006-0.002,0.012-0.005,0.018-0.007c0.006-0.002,0.011-0.004,0.017-0.006c0.119-0.041,0.228-0.099,0.328-0.165   c0.036-0.023,0.068-0.048,0.102-0.074c0.092-0.071,0.177-0.15,0.248-0.24c0.017-0.02,0.033-0.039,0.049-0.06   c0.076-0.105,0.134-0.221,0.181-0.341c0.007-0.019,0.021-0.033,0.027-0.052c0.007-0.019,0.008-0.037,0.013-0.056   c0.014-0.043,0.021-0.087,0.031-0.131c0.011-0.053,0.021-0.106,0.026-0.159c0.004-0.042,0.003-0.083,0.004-0.125   c0.001-0.057,0.001-0.113-0.005-0.168c-0.004-0.041-0.013-0.081-0.021-0.121c-0.011-0.057-0.022-0.113-0.039-0.168   c-0.005-0.015-0.006-0.03-0.011-0.045c-0.01-0.028-0.025-0.052-0.036-0.08c-0.021-0.048-0.04-0.095-0.064-0.14   c-0.025-0.047-0.054-0.091-0.083-0.134c-0.023-0.035-0.047-0.068-0.073-0.101c-0.037-0.045-0.076-0.087-0.118-0.128   c-0.026-0.026-0.053-0.052-0.082-0.076c-0.048-0.04-0.098-0.075-0.149-0.109c-0.028-0.019-0.057-0.037-0.087-0.054   c-0.061-0.033-0.123-0.061-0.187-0.085c-0.019-0.007-0.034-0.018-0.053-0.024c-4.354-1.487-7.175-4.382-8.627-8.851   c-0.015-0.045-0.038-0.086-0.057-0.129c-0.017-0.037-0.03-0.075-0.049-0.11c-0.027-0.052-0.06-0.099-0.093-0.146   c-0.022-0.033-0.044-0.067-0.069-0.098c-0.035-0.042-0.073-0.081-0.112-0.119c-0.031-0.03-0.061-0.062-0.095-0.089   c-0.04-0.034-0.083-0.062-0.127-0.09c-0.038-0.025-0.075-0.052-0.115-0.074c-0.048-0.026-0.099-0.045-0.149-0.065   c-0.033-0.014-0.063-0.032-0.099-0.043c-0.009-0.003-0.017-0.003-0.025-0.005c-0.052-0.016-0.106-0.024-0.16-0.035   c-0.044-0.008-0.088-0.02-0.132-0.024c-0.041-0.004-0.082-0.001-0.123-0.001c-0.059-0.001-0.117-0.003-0.175,0.002   c-0.028,0.003-0.056,0.011-0.083,0.015c-0.071,0.011-0.143,0.024-0.212,0.046c-0.005,0.001-0.011,0.001-0.016,0.003   c-0.021,0.007-0.04,0.019-0.062,0.027c-0.067,0.025-0.133,0.052-0.195,0.086c-0.028,0.015-0.053,0.034-0.08,0.05   c-0.056,0.036-0.111,0.072-0.162,0.115c-0.023,0.02-0.044,0.041-0.065,0.062c-0.049,0.046-0.097,0.094-0.14,0.147   c-0.018,0.022-0.031,0.045-0.048,0.068c-0.04,0.056-0.078,0.112-0.11,0.174c-0.015,0.027-0.024,0.056-0.037,0.084   c-0.022,0.049-0.049,0.096-0.065,0.148c-1.452,4.469-4.273,7.363-8.626,8.849c-0.039,0.014-0.074,0.035-0.111,0.051   c-0.033,0.014-0.065,0.027-0.097,0.044c-0.058,0.03-0.11,0.064-0.163,0.1c-0.026,0.019-0.053,0.037-0.078,0.057   c-0.051,0.041-0.098,0.084-0.142,0.131c-0.022,0.023-0.044,0.046-0.065,0.071c-0.043,0.051-0.081,0.104-0.116,0.159   c-0.017,0.026-0.034,0.052-0.049,0.08c-0.035,0.063-0.063,0.127-0.089,0.194c-0.006,0.017-0.017,0.031-0.022,0.049   c-0.003,0.009-0.003,0.018-0.006,0.027c-0.022,0.068-0.037,0.138-0.049,0.209C50.046,16.117,50.04,16.146,50.036,16.174z    M61.093,10.265c1.428,2.591,3.424,4.62,5.967,6.072c-2.543,1.453-4.539,3.481-5.967,6.071c-1.43-2.592-3.426-4.62-5.97-6.072   C57.668,14.884,59.664,12.856,61.093,10.265z"></path></g></svg>