<?xml version="1.0" encoding="UTF-8" standalone="no"?>
<svg
   xmlns:dc="http://purl.org/dc/elements/1.1/"
   xmlns:cc="http://creativecommons.org/ns#"
   xmlns:rdf="http://www.w3.org/1999/02/22-rdf-syntax-ns#"
   xmlns:svg="http://www.w3.org/2000/svg"
   xmlns="http://www.w3.org/2000/svg"
   xmlns:sodipodi="http://sodipodi.sourceforge.net/DTD/sodipodi-0.dtd"
   xmlns:inkscape="http://www.inkscape.org/namespaces/inkscape"
   version="1.1"
   id="svg2"
   xml:space="preserve"
   width="2405.3333"
   height="660"
   viewBox="0 0 2405.3333 660"
   sodipodi:docname="Byron-Sommardahl-Logo-WHT.eps"><metadata
     id="metadata8"><rdf:RDF><cc:Work
         rdf:about=""><dc:format>image/svg+xml</dc:format><dc:type
           rdf:resource="http://purl.org/dc/dcmitype/StillImage" /></cc:Work></rdf:RDF></metadata><defs
     id="defs6" /><sodipodi:namedview
     pagecolor="#ffffff"
     bordercolor="#666666"
     borderopacity="1"
     objecttolerance="10"
     gridtolerance="10"
     guidetolerance="10"
     inkscape:pageopacity="0"
     inkscape:pageshadow="2"
     inkscape:window-width="640"
     inkscape:window-height="480"
     id="namedview4" /><g
     id="g10"
     inkscape:groupmode="layer"
     inkscape:label="ink_ext_XXXXXX"
     transform="matrix(1.3333333,0,0,-1.3333333,0,660)"><g
       id="g12"
       transform="scale(0.1)"><path
         d="M 3724.07,2527.16 C 3725.86,3336.04 3057.96,4020.85 2212,4002.67 1427.57,3985.82 763.75,3348.77 767.129,2517.69 770.445,1701.26 1428.71,1040.35 2257.74,1046.45 c 834.07,6.13 1470.05,688.11 1466.33,1480.71 z m 95.75,-2.51 c 4.74,-867.63 -707.54,-1576.709 -1574.8,-1576.67 -862.88,0.032 -1575.934,703.41 -1575.551,1576.78 0.383,870.68 711.091,1576.1 1577.141,1575.24 869.61,-0.86 1577.35,-711.74 1573.21,-1575.35"
         style="fill:#a78842;fill-opacity:1;fill-rule:nonzero;stroke:none"
         id="path14" /><path
         d="m 3095.98,2324.36 c -27.51,-0.23 -45.77,-17.8 -46.05,-44.32 -0.29,-27.58 19.32,-48.24 46.09,-48.57 26.87,-0.33 46.9,19.86 47.05,47.44 0.16,29.43 -16.7,45.7 -47.09,45.45 z m 69.62,570.42 c 0,140.59 0.12,281.18 -0.07,421.78 -0.06,39.55 -9.89,51.79 -48.33,60.45 -43.4,9.79 -86.92,19.04 -130.45,28.21 -228.08,48.04 -456.19,95.9 -684.25,144.05 -34.56,7.3 -68.7,8.41 -103.53,1.01 -271.5,-57.72 -543.09,-114.99 -814.65,-172.43 -44.99,-9.52 -51.48,-17.12 -51.49,-61.96 -0.07,-276.33 0.35,-552.67 -0.21,-829 -0.18,-89.6 10.52,-177.61 31.05,-264.66 47.46,-201.26 144.99,-374.86 290.21,-521.37 93.4,-94.23 200.03,-171.16 317.25,-233.38 73.75,-39.14 150.06,-72.09 229.33,-98.45 32.54,-10.82 63.38,-11.96 96.21,0.17 47.22,17.45 95.02,33.35 141.04,53.85 131.07,58.41 251.21,134.07 357.77,230.38 103.12,93.2 187.08,201.44 249.71,325.82 18.31,36.35 35.45,73.33 47.7,112.18 7.32,23.2 -4.63,45.99 -26.01,54.96 -20.91,8.77 -46.78,1.3 -59.05,-17.75 -4.15,-6.44 -6.96,-13.83 -9.8,-21.02 -50.89,-128.79 -124.5,-242.65 -222.46,-340.75 -128.1,-128.3 -279.44,-220.04 -447.39,-285.84 -6.29,-2.47 -12.78,-4.56 -19.35,-6.14 -9.66,-2.32 -14.72,1.68 -14.71,11.86 0.03,32 0.12,64 -0.11,95.99 -0.07,9.04 3.91,14.63 12.12,17.56 6.39,2.27 12.79,4.5 19.23,6.61 108.58,35.46 209.31,86.26 301.5,153.87 100.66,73.8 183.71,163.7 244.73,272.73 75.41,134.75 109.97,280.19 109.67,434.44 -0.42,220.1 -0.04,440.2 -0.05,660.29 0,8.72 0.03,17.49 -0.88,26.14 -1.79,17.03 -11.13,28.65 -27.3,34.26 -7.29,2.53 -14.85,4.46 -22.43,5.97 -139.4,27.88 -278.82,55.63 -418.23,83.48 -65.43,13.07 -130.75,26.72 -196.3,39.16 -16.43,3.12 -22.96,10.24 -22.37,27.15 1.05,30.02 -0.07,60.11 0.45,90.16 0.3,17.31 1.86,18.39 18.72,14.95 36.95,-7.54 73.8,-15.63 110.7,-23.39 134.4,-28.28 268.8,-56.53 403.21,-84.78 72.88,-15.31 145.81,-30.4 218.62,-46.01 23.58,-5.06 26.91,-10.49 25.3,-34.01 -0.93,-13.51 -1.89,-27.05 -1.9,-40.58 -0.13,-245.31 -0.08,-490.62 -0.23,-735.92 -0.01,-12.69 0.69,-25.17 3.97,-37.43 5.49,-20.53 22.93,-34.26 44.52,-35.19 17.43,-0.75 35.72,11.69 42.8,29.54 5.45,13.77 5.81,28.26 5.79,42.91 -0.14,136.71 -0.08,273.42 -0.05,410.13 z M 2244.88,1120.99 c -775.47,0.2 -1404.802,631.69 -1402.716,1407.53 2.078,773.71 630.256,1400.5 1404.656,1399.28 788.37,-1.24 1405.21,-643.01 1402.6,-1407.03 -2.63,-772.73 -630.48,-1399.98 -1404.54,-1399.78"
         style="fill:#4c1c1c;fill-opacity:1;fill-rule:nonzero;stroke:none"
         id="path16" /><path
         d="m 2201.43,1468.96 c 0,40.94 -0.08,77.66 0.06,114.38 0.04,10.02 -3.94,16.56 -13.83,19.38 -6.51,1.85 -12.91,4.12 -19.32,6.3 -165.13,56.27 -310.93,143.06 -430.21,271.94 -90.59,97.87 -152.92,211.5 -188.71,339.63 -25.69,91.96 -35.7,186.04 -34.67,281.44 0.54,50.4 0.14,100.82 0.15,151.23 0,19.32 4.36,36.73 22.01,47.74 29.66,18.51 67.28,-0.89 69.75,-37.49 2.08,-30.89 0.57,-62.02 0.84,-93.03 0.69,-77.41 -1.88,-154.74 10.63,-231.86 25.59,-157.76 91.06,-295.44 202.42,-410.13 112.5,-115.87 249.51,-191.74 402.31,-240.82 18.4,-5.91 35.92,-4.43 54.04,1.4 101.21,32.56 196.49,77.31 282.85,139.6 212.48,153.27 322.98,361.69 327.25,623.31 3.41,209.34 0.82,418.78 0.81,628.18 0,28.56 -0.65,28.85 -27.52,34.16 -190.69,37.64 -381.42,75.1 -572,113.34 -27.18,5.45 -53.23,5.55 -80.4,0.04 -140.26,-28.47 -280.7,-55.99 -421.08,-83.82 -50.28,-9.97 -100.58,-19.76 -150.84,-29.83 -28.39,-5.69 -28.34,-5.87 -28.5,-36.14 -0.09,-16.48 0.86,-33.05 -0.55,-49.41 -2.37,-27.47 -23.02,-46.95 -47.08,-46.21 -23.31,0.72 -43.49,19.51 -44.42,45.57 -1.41,39.69 -1.3,79.51 0.19,119.2 0.84,22.44 13.93,37.65 36.63,43.13 6.59,1.59 13.12,3.43 19.76,4.75 159.35,31.68 318.7,63.34 478.08,94.89 41.73,8.27 83.56,16.04 125.31,24.24 25.24,4.96 25.92,5.79 26.11,32.52 0.21,28.11 0.36,56.23 -0.1,84.34 -0.36,22.06 -2.21,23.42 -23.89,18.98 -45.47,-9.3 -90.9,-18.86 -136.31,-28.47 -196.78,-41.67 -393.53,-83.44 -590.32,-125.06 -28.75,-6.09 -28.78,-5.81 -28.77,-35.37 0.04,-238.48 -0.16,-476.97 0.22,-715.45 0.13,-85.29 6.3,-170.14 21.91,-254.18 37.31,-200.85 126.59,-375.21 268.41,-521.94 107.03,-110.74 233.59,-194.18 373.6,-257.32 35.92,-16.2 71.94,-32.86 115.18,-43.16 z m 964.15,1425.82 c -0.01,-136.71 -0.07,-273.42 0.07,-410.13 0.02,-14.65 -0.34,-29.14 -5.79,-42.91 -7.08,-17.85 -25.37,-30.29 -42.8,-29.54 -21.59,0.93 -39.03,14.66 -44.52,35.19 -3.28,12.26 -3.98,24.74 -3.97,37.43 0.15,245.3 0.1,490.61 0.23,735.92 0.01,13.53 0.97,27.07 1.9,40.58 1.61,23.52 -1.72,28.95 -25.3,34.01 -72.81,15.61 -145.74,30.7 -218.62,46.01 -134.41,28.25 -268.81,56.5 -403.21,84.78 -36.9,7.76 -73.75,15.85 -110.7,23.39 -16.86,3.44 -18.42,2.36 -18.72,-14.95 -0.52,-30.05 0.6,-60.14 -0.45,-90.16 -0.59,-16.91 5.94,-24.03 22.37,-27.15 65.55,-12.44 130.87,-26.09 196.3,-39.16 139.41,-27.85 278.83,-55.6 418.23,-83.48 7.58,-1.51 15.14,-3.44 22.43,-5.97 16.17,-5.61 25.51,-17.23 27.3,-34.26 0.91,-8.65 0.88,-17.42 0.88,-26.14 0.01,-220.09 -0.37,-440.19 0.05,-660.29 0.3,-154.25 -34.26,-299.69 -109.67,-434.44 -61.02,-109.03 -144.07,-198.93 -244.73,-272.73 -92.19,-67.61 -192.92,-118.41 -301.5,-153.87 -6.44,-2.11 -12.84,-4.34 -19.23,-6.61 -8.21,-2.93 -12.19,-8.52 -12.12,-17.56 0.23,-31.99 0.14,-63.99 0.11,-95.99 -0.01,-10.18 5.05,-14.18 14.71,-11.86 6.57,1.58 13.06,3.67 19.35,6.14 167.95,65.8 319.29,157.54 447.39,285.84 97.96,98.1 171.57,211.96 222.46,340.75 2.84,7.19 5.65,14.58 9.8,21.02 12.27,19.05 38.14,26.52 59.05,17.75 21.38,-8.97 33.33,-31.76 26.01,-54.96 -12.25,-38.85 -29.39,-75.83 -47.7,-112.18 -62.63,-124.38 -146.59,-232.62 -249.71,-325.82 -106.56,-96.31 -226.7,-171.97 -357.77,-230.38 -46.02,-20.5 -93.82,-36.4 -141.04,-53.85 -32.83,-12.13 -63.67,-10.99 -96.21,-0.17 -79.27,26.36 -155.58,59.31 -229.33,98.45 -117.22,62.22 -223.85,139.15 -317.25,233.38 -145.22,146.51 -242.75,320.11 -290.21,521.37 -20.53,87.05 -31.23,175.06 -31.05,264.66 0.56,276.33 0.14,552.67 0.21,829 0.01,44.84 6.5,52.44 51.49,61.96 271.56,57.44 543.15,114.71 814.65,172.43 34.83,7.4 68.97,6.29 103.53,-1.01 228.06,-48.15 456.17,-96.01 684.25,-144.05 43.53,-9.17 87.05,-18.42 130.45,-28.21 38.44,-8.66 48.27,-20.9 48.33,-60.45 0.19,-140.6 0.07,-281.19 0.05,-421.78"
         style="fill:#a78842;fill-opacity:1;fill-rule:nonzero;stroke:none"
         id="path18" /><path
         d="m 3095.98,2324.36 c 30.39,0.25 47.25,-16.02 47.09,-45.45 -0.15,-27.58 -20.18,-47.77 -47.05,-47.44 -26.77,0.33 -46.38,20.99 -46.09,48.57 0.28,26.52 18.54,44.09 46.05,44.32"
         style="fill:#a78842;fill-opacity:1;fill-rule:nonzero;stroke:none"
         id="path20" /><path
         d="m 1560.48,2891.4 c -24.51,-0.27 -45.89,-22.15 -45.69,-46.76 0.2,-25.2 20.66,-44.59 46.8,-44.35 26.14,0.24 45.43,19.59 45.49,45.63 0.05,24.4 -21.83,45.75 -46.6,45.48 z M 2752.4,2275.7 c -0.44,24.51 -22.16,45.97 -46.84,46.28 -23.91,0.3 -45.77,-22.45 -45.31,-47.14 0.48,-25.72 20.51,-45.05 46.52,-44.91 25.79,0.14 46.08,20.49 45.63,45.77 z m -550.96,-1.59 c 0.33,26.65 -18.61,47.29 -43.91,47.88 -24.53,0.56 -46.59,-20.47 -47.64,-45.41 -1.04,-24.78 19.6,-45.97 45.34,-46.54 27.66,-0.61 45.88,16.76 46.21,44.07 z m 91.64,137.78 c 25.49,-0.36 46.28,19.38 47.05,44.69 0.81,26.78 -19.94,47.89 -46.85,47.66 -25.61,-0.21 -45.44,-20.25 -45.51,-46 -0.07,-25.57 19.9,-45.99 45.31,-46.35 z m 139.64,-181.95 c 0,-0.03 0,-0.05 0,-0.08 29.01,0 58.02,-0.47 87.02,0.14 29.84,0.62 45.6,14.11 47.94,39.47 2.66,28.85 -11.3,45.95 -42.34,51.5 -5.67,1.01 -11.5,1.6 -17.26,1.61 -51.24,0.13 -102.49,0.16 -153.73,-0.01 -6.7,-0.02 -13.52,-0.79 -20.07,-2.19 -28.19,-6.01 -43.06,-25.02 -40.35,-51.01 2.43,-23.36 21.13,-38.86 48.87,-39.32 29.96,-0.49 59.94,-0.11 89.92,-0.11 z m -549.93,-0.05 c 0,0.13 0,0.26 0,0.39 31.93,0 63.89,-0.85 95.78,0.3 21.47,0.77 37.86,17.63 40.81,38.45 2.83,19.98 -9.61,41.28 -29.14,48.52 -11.87,4.4 -24.39,5.31 -37.12,5.24 -47.41,-0.25 -94.83,0.01 -142.24,-0.06 -7.72,-0.01 -15.57,0.09 -23.13,-1.17 -28.85,-4.79 -44.99,-23.32 -43.19,-48.78 1.95,-27.62 17.56,-42.04 48.24,-42.74 29.98,-0.69 59.99,-0.15 89.99,-0.15 z m 733.72,274.49 c -22.24,0 -44.48,0.02 -66.73,0 -24.17,-0.03 -48.4,0.84 -72.52,-0.36 -28.45,-1.42 -45.18,-19.57 -44.95,-46.3 0.22,-26.47 17.47,-43.79 45.78,-45.85 3.85,-0.28 7.73,-0.12 11.6,-0.12 82.21,-0.04 164.41,-0.13 246.61,-0.03 8.65,0.02 17.66,-0.22 25.89,1.96 34.78,9.21 47.02,48.57 24.02,75.61 -10.32,12.14 -24.07,15.12 -39.14,15.09 -43.52,-0.09 -87.04,-0.03 -130.56,0 z m -90.42,365.92 c -13.11,-15.29 -30.49,-22.32 -44.88,-33.21 -11.55,-8.73 -23.9,-16.44 -35.21,-25.46 -15.86,-12.65 -16.25,-30.38 -11.96,-47.84 4.39,-17.84 18.54,-26.45 35.61,-30.22 14.28,-3.16 26.64,2.6 38.08,10.17 41.95,27.77 82.85,57.25 125.88,83.23 33.43,20.19 36.58,64.9 -0.34,87.3 -42.15,25.58 -82.36,54.35 -123.45,81.68 -4.02,2.68 -8.05,5.51 -12.44,7.43 -21.73,9.51 -44.58,3.89 -57.01,-13.73 -13.14,-18.61 -10.71,-44.02 6.05,-60.75 12.44,-12.43 28.08,-20.5 42.27,-30.55 12.35,-8.73 26.6,-15.19 37.4,-28.05 z m -460.38,-89.8 c -2.21,15.52 -8.42,28.98 -22.64,38.12 -17.07,10.98 -33.83,22.45 -50.63,33.85 -25.36,17.21 -25.34,19.19 1.05,36.94 13.63,9.17 27.65,17.78 41.24,27 6.37,4.31 12.95,8.76 18.06,14.39 24.13,26.6 11.92,65.36 -22.63,75.57 -18.36,5.43 -32.13,-3.01 -45.8,-11.94 -40.45,-26.44 -80.54,-53.44 -120.75,-80.27 -3.21,-2.14 -6.34,-4.45 -9.29,-6.95 -24.58,-20.87 -25.28,-51.3 -1.45,-72.88 4.98,-4.52 10.81,-8.13 16.45,-11.88 37.01,-24.63 74.07,-49.21 111.15,-73.76 8.05,-5.33 16.03,-10.57 25.51,-13.46 29.14,-8.87 60.9,14.75 59.73,45.27 z m 180.13,-916.84 c 0,-0.06 0,-0.12 0,-0.18 56.09,0 112.19,-0.04 168.29,0.04 8.69,0.01 17.54,-0.4 26.06,0.98 27.65,4.49 43.67,32.45 34.56,58.89 -6.97,20.22 -20.07,34.46 -61.29,31.84 -29.98,-1.91 -59.86,-2.04 -89.78,-2.16 -80.28,-0.3 -160.56,-0.01 -240.84,-0.01 -8.7,0 -17.48,0.3 -26.08,-0.71 -21.47,-2.53 -34.75,-16.61 -36.86,-38.07 -2.87,-29.17 15.15,-50.02 46.04,-50.41 59.96,-0.74 119.93,-0.21 179.9,-0.21 z m -316.46,548.12 c 0,-0.05 0,-0.1 0,-0.14 54.29,0 108.57,-0.05 162.86,0.04 8.7,0.01 17.62,-0.5 26.07,1.12 24.01,4.61 37.9,23.25 36.96,48.07 -0.86,22.89 -15.84,39.5 -39.45,42.83 -7.62,1.08 -15.48,0.64 -23.23,0.64 -109.54,0.06 -219.08,0.1 -328.62,0.08 -8.71,0 -17.58,0.47 -26.11,-0.89 -24.53,-3.92 -38.86,-21.83 -38.42,-46.73 0.48,-27.66 18.1,-44.5 49.64,-44.84 60.09,-0.63 120.2,-0.18 180.3,-0.18 z m 405.5,639.08 c -0.02,26.21 -11.44,41.97 -32.57,46.57 -23.73,5.15 -43.16,-3.39 -53.25,-24.4 -3.71,-7.74 -5.99,-16.29 -8.11,-24.68 -26.93,-106.76 -53.82,-213.53 -80.42,-320.37 -3.26,-13.05 -7.41,-25.96 -7.11,-39.83 0.56,-25.12 12.02,-40.03 36.03,-45.45 21.77,-4.92 39.5,3.61 49.69,24.94 3.71,7.76 6.08,16.28 8.2,24.67 26.97,106.75 53.91,213.5 80.46,320.35 3.24,13.02 8.39,25.9 7.08,38.2 z m -87.91,-912.69 c -113.32,0 -226.64,0.01 -339.96,-0.02 -9.68,0 -19.43,0.4 -29.03,-0.55 -23.07,-2.28 -39.38,-18.32 -42.54,-40.87 -2.67,-19.05 10.72,-39.34 30.8,-47.79 10.28,-4.33 20.87,-3.73 31.46,-3.73 233.42,-0.06 466.84,-0.06 700.26,-0.01 9.64,0 19.21,-0.27 28.73,2.8 23.04,7.42 35.41,24.66 33.5,47.91 -1.75,21.25 -16.63,37.82 -38.46,41.23 -9.48,1.48 -19.32,0.96 -28.99,0.96 -115.26,0.05 -230.51,0.03 -345.77,0.07 z m -45.54,-669.21 c -43.24,10.3 -79.26,26.96 -115.18,43.16 -140.01,63.14 -266.57,146.58 -373.6,257.32 -141.82,146.73 -231.1,321.09 -268.41,521.94 -15.61,84.04 -21.78,168.89 -21.91,254.18 -0.38,238.48 -0.18,476.97 -0.22,715.45 -0.01,29.56 0.02,29.28 28.77,35.37 196.79,41.62 393.54,83.39 590.32,125.06 45.41,9.61 90.84,19.17 136.31,28.47 21.68,4.44 23.53,3.08 23.89,-18.98 0.46,-28.11 0.31,-56.23 0.1,-84.34 -0.19,-26.73 -0.87,-27.56 -26.11,-32.52 -41.75,-8.2 -83.58,-15.97 -125.31,-24.24 -159.38,-31.55 -318.73,-63.21 -478.08,-94.89 -6.64,-1.32 -13.17,-3.16 -19.76,-4.75 -22.7,-5.48 -35.79,-20.69 -36.63,-43.13 -1.49,-39.69 -1.6,-79.51 -0.19,-119.2 0.93,-26.06 21.11,-44.85 44.42,-45.57 24.06,-0.74 44.71,18.74 47.08,46.21 1.41,16.36 0.46,32.93 0.55,49.41 0.16,30.27 0.11,30.45 28.5,36.14 50.26,10.07 100.56,19.86 150.84,29.83 140.38,27.83 280.82,55.35 421.08,83.82 27.17,5.51 53.22,5.41 80.4,-0.04 190.58,-38.24 381.31,-75.7 572,-113.34 26.87,-5.31 27.52,-5.6 27.52,-34.16 0.01,-209.4 2.6,-418.84 -0.81,-628.18 -4.27,-261.62 -114.77,-470.04 -327.25,-623.31 -86.36,-62.29 -181.64,-107.04 -282.85,-139.6 -18.12,-5.83 -35.64,-7.31 -54.04,-1.4 -152.8,49.08 -289.81,124.95 -402.31,240.82 -111.36,114.69 -176.83,252.37 -202.42,410.13 -12.51,77.12 -9.94,154.45 -10.63,231.86 -0.27,31.01 1.24,62.14 -0.84,93.03 -2.47,36.6 -40.09,56 -69.75,37.49 -17.65,-11.01 -22.01,-28.42 -22.01,-47.74 -0.01,-50.41 0.39,-100.83 -0.15,-151.23 -1.03,-95.4 8.98,-189.48 34.67,-281.44 35.79,-128.13 98.12,-241.76 188.71,-339.63 119.28,-128.88 265.08,-215.67 430.21,-271.94 6.41,-2.18 12.81,-4.45 19.32,-6.3 9.89,-2.82 13.87,-9.36 13.83,-19.38 -0.14,-36.72 -0.06,-73.44 -0.06,-114.38"
         style="fill:#4c1c1c;fill-opacity:1;fill-rule:nonzero;stroke:none"
         id="path22" /><path
         d="m 2246.97,2138.15 c 115.26,-0.02 230.51,0 345.77,-0.05 9.67,0 19.51,0.52 28.99,-0.96 21.83,-3.41 36.71,-19.98 38.46,-41.23 1.91,-23.25 -10.46,-40.49 -33.5,-47.91 -9.52,-3.07 -19.09,-2.8 -28.73,-2.8 -233.42,-0.05 -466.84,-0.05 -700.26,0.01 -10.59,0 -21.18,-0.6 -31.46,3.73 -20.08,8.45 -33.47,28.74 -30.8,47.79 3.16,22.55 19.47,38.59 42.54,40.87 9.6,0.95 19.35,0.55 29.03,0.55 113.32,0.03 226.64,0.02 339.96,0"
         style="fill:#a78842;fill-opacity:1;fill-rule:nonzero;stroke:none"
         id="path24" /><path
         d="m 2334.88,3050.86 c 1.31,-12.3 -3.84,-25.18 -7.08,-38.2 -26.55,-106.85 -53.49,-213.6 -80.46,-320.35 -2.12,-8.39 -4.49,-16.91 -8.2,-24.67 -10.19,-21.33 -27.92,-29.86 -49.69,-24.94 -24.01,5.42 -35.47,20.33 -36.03,45.45 -0.3,13.87 3.85,26.78 7.11,39.83 26.6,106.84 53.49,213.61 80.42,320.37 2.12,8.39 4.4,16.94 8.11,24.68 10.09,21.01 29.52,29.55 53.25,24.4 21.13,-4.6 32.55,-20.36 32.57,-46.57"
         style="fill:#a78842;fill-opacity:1;fill-rule:nonzero;stroke:none"
         id="path26" /><path
         d="m 1929.38,2411.78 c -60.1,0 -120.21,-0.45 -180.3,0.18 -31.54,0.34 -49.16,17.18 -49.64,44.84 -0.44,24.9 13.89,42.81 38.42,46.73 8.53,1.36 17.4,0.89 26.11,0.89 109.54,0.02 219.08,-0.02 328.62,-0.08 7.75,0 15.61,0.44 23.23,-0.64 23.61,-3.33 38.59,-19.94 39.45,-42.83 0.94,-24.82 -12.95,-43.46 -36.96,-48.07 -8.45,-1.62 -17.37,-1.11 -26.07,-1.12 -54.29,-0.09 -108.57,-0.04 -162.86,-0.04 0,0.04 0,0.09 0,0.14"
         style="fill:#a78842;fill-opacity:1;fill-rule:nonzero;stroke:none"
         id="path28" /><path
         d="m 2245.84,1863.66 c -59.97,0 -119.94,-0.53 -179.9,0.21 -30.89,0.39 -48.91,21.24 -46.04,50.41 2.11,21.46 15.39,35.54 36.86,38.07 8.6,1.01 17.38,0.71 26.08,0.71 80.28,0 160.56,-0.29 240.84,0.01 29.92,0.12 59.8,0.25 89.78,2.16 41.22,2.62 54.32,-11.62 61.29,-31.84 9.11,-26.44 -6.91,-54.4 -34.56,-58.89 -8.52,-1.38 -17.37,-0.97 -26.06,-0.98 -56.1,-0.08 -112.2,-0.04 -168.29,-0.04 0,0.06 0,0.12 0,0.18"
         style="fill:#a78842;fill-opacity:1;fill-rule:nonzero;stroke:none"
         id="path30" /><path
         d="m 2065.71,2780.5 c 1.17,-30.52 -30.59,-54.14 -59.73,-45.27 -9.48,2.89 -17.46,8.13 -25.51,13.46 -37.08,24.55 -74.14,49.13 -111.15,73.76 -5.64,3.75 -11.47,7.36 -16.45,11.88 -23.83,21.58 -23.13,52.01 1.45,72.88 2.95,2.5 6.08,4.81 9.29,6.95 40.21,26.83 80.3,53.83 120.75,80.27 13.67,8.93 27.44,17.37 45.8,11.94 34.55,-10.21 46.76,-48.97 22.63,-75.57 -5.11,-5.63 -11.69,-10.08 -18.06,-14.39 -13.59,-9.22 -27.61,-17.83 -41.24,-27 -26.39,-17.75 -26.41,-19.73 -1.05,-36.94 16.8,-11.4 33.56,-22.87 50.63,-33.85 14.22,-9.14 20.43,-22.6 22.64,-38.12"
         style="fill:#a78842;fill-opacity:1;fill-rule:nonzero;stroke:none"
         id="path32" /><path
         d="m 2526.09,2870.3 c -10.8,12.86 -25.05,19.32 -37.4,28.05 -14.19,10.05 -29.83,18.12 -42.27,30.55 -16.76,16.73 -19.19,42.14 -6.05,60.75 12.43,17.62 35.28,23.24 57.01,13.73 4.39,-1.92 8.42,-4.75 12.44,-7.43 41.09,-27.33 81.3,-56.1 123.45,-81.68 36.92,-22.4 33.77,-67.11 0.34,-87.3 -43.03,-25.98 -83.93,-55.46 -125.88,-83.23 -11.44,-7.57 -23.8,-13.33 -38.08,-10.17 -17.07,3.77 -31.22,12.38 -35.61,30.22 -4.29,17.46 -3.9,35.19 11.96,47.84 11.31,9.02 23.66,16.73 35.21,25.46 14.39,10.89 31.77,17.92 44.88,33.21"
         style="fill:#a78842;fill-opacity:1;fill-rule:nonzero;stroke:none"
         id="path34" /><path
         d="m 2616.51,2504.36 c 43.52,-0.01 87.04,-0.07 130.56,0.02 15.07,0.03 28.82,-2.95 39.14,-15.09 23,-27.04 10.76,-66.4 -24.02,-75.61 -8.23,-2.18 -17.24,-1.94 -25.89,-1.96 -82.2,-0.1 -164.4,-0.01 -246.61,0.03 -3.87,0 -7.75,-0.16 -11.6,0.12 -28.31,2.06 -45.56,19.38 -45.78,45.85 -0.23,26.73 16.5,44.88 44.95,46.3 24.12,1.2 48.35,0.33 72.52,0.36 22.25,0.02 44.49,0 66.73,-0.02"
         style="fill:#a78842;fill-opacity:1;fill-rule:nonzero;stroke:none"
         id="path36" /><path
         d="m 1882.79,2229.89 c -30,0 -60.01,-0.54 -89.99,0.15 -30.68,0.7 -46.29,15.12 -48.24,42.74 -1.8,25.46 14.34,43.99 43.19,48.78 7.56,1.26 15.41,1.16 23.13,1.17 47.41,0.07 94.83,-0.19 142.24,0.06 12.73,0.07 25.25,-0.84 37.12,-5.24 19.53,-7.24 31.97,-28.54 29.14,-48.52 -2.95,-20.82 -19.34,-37.68 -40.81,-38.45 -31.89,-1.15 -63.85,-0.3 -95.78,-0.3 0,-0.13 0,-0.26 0,-0.39"
         style="fill:#a78842;fill-opacity:1;fill-rule:nonzero;stroke:none"
         id="path38" /><path
         d="m 2432.72,2229.94 c -29.98,0 -59.96,-0.38 -89.92,0.11 -27.74,0.46 -46.44,15.96 -48.87,39.32 -2.71,25.99 12.16,45 40.35,51.01 6.55,1.4 13.37,2.17 20.07,2.19 51.24,0.17 102.49,0.14 153.73,0.01 5.76,-0.01 11.59,-0.6 17.26,-1.61 31.04,-5.55 45,-22.65 42.34,-51.5 -2.34,-25.36 -18.1,-38.85 -47.94,-39.47 -29,-0.61 -58.01,-0.14 -87.02,-0.14 0,0.03 0,0.05 0,0.08"
         style="fill:#a78842;fill-opacity:1;fill-rule:nonzero;stroke:none"
         id="path40" /><path
         d="m 2293.08,2411.89 c -25.41,0.36 -45.38,20.78 -45.31,46.35 0.07,25.75 19.9,45.79 45.51,46 26.91,0.23 47.66,-20.88 46.85,-47.66 -0.77,-25.31 -21.56,-45.05 -47.05,-44.69"
         style="fill:#a78842;fill-opacity:1;fill-rule:nonzero;stroke:none"
         id="path42" /><path
         d="m 2201.44,2274.11 c -0.33,-27.31 -18.55,-44.68 -46.21,-44.07 -25.74,0.57 -46.38,21.76 -45.34,46.54 1.05,24.94 23.11,45.97 47.64,45.41 25.3,-0.59 44.24,-21.23 43.91,-47.88"
         style="fill:#a78842;fill-opacity:1;fill-rule:nonzero;stroke:none"
         id="path44" /><path
         d="m 2752.4,2275.7 c 0.45,-25.28 -19.84,-45.63 -45.63,-45.77 -26.01,-0.14 -46.04,19.19 -46.52,44.91 -0.46,24.69 21.4,47.44 45.31,47.14 24.68,-0.31 46.4,-21.77 46.84,-46.28"
         style="fill:#a78842;fill-opacity:1;fill-rule:nonzero;stroke:none"
         id="path46" /><path
         d="m 1560.48,2891.4 c 24.77,0.27 46.65,-21.08 46.6,-45.48 -0.06,-26.04 -19.35,-45.39 -45.49,-45.63 -26.14,-0.24 -46.6,19.15 -46.8,44.35 -0.2,24.61 21.18,46.49 45.69,46.76"
         style="fill:#a78842;fill-opacity:1;fill-rule:nonzero;stroke:none"
         id="path48" /><path
         d="m 5046.27,2980.17 c 0,69.62 -53.09,102.66 -152.2,102.66 h -223.02 v -204.14 h 223.02 c 99.11,0 152.2,30.68 152.2,101.48 z m -375.22,436.59 v -194.7 h 189.97 c 93.22,0 143.96,33.04 143.96,97.94 0,64.9 -50.74,96.76 -143.96,96.76 z m 567.56,-456.65 c 0,-142.78 -113.27,-225.37 -330.38,-225.37 h -427.15 v 825.97 h 403.54 c 206.5,0 312.69,-86.14 312.69,-214.75 0,-82.6 -42.47,-146.31 -109.74,-181.71 92.04,-29.5 151.04,-100.3 151.04,-204.14"
         style="fill:#c7b980;fill-opacity:1;fill-rule:nonzero;stroke:none"
         id="path50" /><path
         d="m 6148.4,3027.37 v -292.63 h -191.15 v 294.99 l -319.77,530.98 h 202.95 l 220.66,-366.97 220.65,366.97 h 187.62 L 6148.4,3027.37"
         style="fill:#c7b980;fill-opacity:1;fill-rule:nonzero;stroke:none"
         id="path52" /><path
         d="m 7274.14,3404.96 h -155.76 v -287.91 h 155.76 c 116.82,0 175.82,54.28 175.82,143.96 0,90.85 -59,143.95 -175.82,143.95 z m 179.36,-670.22 -159.3,230.09 h -175.82 v -230.09 h -191.15 v 825.97 h 357.54 c 220.64,0 358.69,-114.45 358.69,-299.7 0,-123.9 -62.52,-214.76 -169.91,-260.78 l 185.26,-265.49 H 7453.5"
         style="fill:#c7b980;fill-opacity:1;fill-rule:nonzero;stroke:none"
         id="path54" /><path
         d="m 8838.79,3147.72 c 0,156.94 -110.92,264.32 -258.42,264.32 -147.5,0 -258.42,-107.38 -258.42,-264.32 0,-156.93 110.92,-264.3 258.42,-264.3 147.5,0 258.42,107.37 258.42,264.3 z m -710.35,0 c 0,245.43 191.15,427.15 451.93,427.15 259.59,0 451.93,-180.53 451.93,-427.15 0,-246.61 -192.34,-427.14 -451.93,-427.14 -260.78,0 -451.93,181.71 -451.93,427.14"
         style="fill:#c7b980;fill-opacity:1;fill-rule:nonzero;stroke:none"
         id="path56" /><path
         d="m 10319.7,3560.71 v -825.97 h -157 l -411.76,501.48 v -501.48 h -188.79 v 825.97 h 158.1 l 410.65,-501.48 v 501.48 h 188.8"
         style="fill:#c7b980;fill-opacity:1;fill-rule:nonzero;stroke:none"
         id="path58" /><path
         d="m 4416.18,1456.15 64.9,143.96 c 69.62,-50.74 173.45,-86.14 272.57,-86.14 113.28,0 159.29,37.76 159.29,88.5 0,154.57 -480.24,48.38 -480.24,355.17 0,140.42 113.27,257.23 348.09,257.23 103.83,0 210.03,-24.78 286.72,-73.16 l -58.99,-145.14 c -76.7,43.66 -155.75,64.9 -228.92,64.9 -113.27,0 -156.93,-42.48 -156.93,-94.39 0,-152.22 480.25,-47.2 480.25,-350.45 0,-138.06 -114.46,-256.05 -350.45,-256.05 -130.98,0 -263.13,38.93 -336.29,95.57"
         style="fill:#c7b980;fill-opacity:1;fill-rule:nonzero;stroke:none"
         id="path60" /><path
         d="m 6278.18,1787.72 c 0,156.94 -110.91,264.31 -258.41,264.31 -147.5,0 -258.42,-107.37 -258.42,-264.31 0,-156.93 110.92,-264.31 258.42,-264.31 147.5,0 258.41,107.38 258.41,264.31 z m -710.35,0 c 0,245.43 191.15,427.15 451.94,427.15 259.59,0 451.93,-180.53 451.93,-427.15 0,-246.61 -192.34,-427.14 -451.93,-427.14 -260.79,0 -451.94,181.71 -451.94,427.14"
         style="fill:#c7b980;fill-opacity:1;fill-rule:nonzero;stroke:none"
         id="path62" /><path
         d="m 7753.16,1374.74 -1.17,495.58 -243.06,-408.27 h -86.16 L 7180.9,1859.7 v -484.96 h -179.36 v 825.97 h 158.11 l 309.16,-513.29 304.41,513.29 h 156.94 l 2.36,-825.97 h -179.36"
         style="fill:#c7b980;fill-opacity:1;fill-rule:nonzero;stroke:none"
         id="path64" /><path
         d="m 9265.92,1374.74 -1.19,495.58 -243.07,-408.27 h -86.13 l -241.9,397.65 v -484.96 h -179.35 v 825.97 h 158.12 l 309.14,-513.29 304.44,513.29 h 156.93 l 2.36,-825.97 h -179.35"
         style="fill:#c7b980;fill-opacity:1;fill-rule:nonzero;stroke:none"
         id="path66" /><path
         d="m 10510.8,1696.87 -131,316.23 -131,-316.23 z m 60.2,-145.14 h -383.5 l -73.2,-176.99 h -195.82 l 368.12,825.97 h 188.8 l 369.3,-825.97 h -200.6 l -73.1,176.99"
         style="fill:#c7b980;fill-opacity:1;fill-rule:nonzero;stroke:none"
         id="path68" /><path
         d="m 11663.7,2044.95 h -155.8 v -287.91 h 155.8 c 116.8,0 175.8,54.28 175.8,143.96 0,90.86 -59,143.95 -175.8,143.95 z m 179.3,-670.21 -159.3,230.08 h -175.8 v -230.08 h -191.1 v 825.97 h 357.5 c 220.6,0 358.7,-114.46 358.7,-299.71 0,-123.9 -62.6,-214.75 -169.9,-260.78 l 185.2,-265.48 H 11843"
         style="fill:#c7b980;fill-opacity:1;fill-rule:nonzero;stroke:none"
         id="path70" /><path
         d="m 12935.7,1531.67 c 164,0 271.4,97.94 271.4,256.05 0,158.12 -107.4,256.06 -271.4,256.06 h -174.6 v -512.11 z m -365.8,669.04 h 375.2 c 270.2,0 455.5,-162.84 455.5,-412.99 0,-250.15 -185.3,-412.98 -455.5,-412.98 h -375.2 v 825.97"
         style="fill:#c7b980;fill-opacity:1;fill-rule:nonzero;stroke:none"
         id="path72" /><path
         d="m 14402.4,1696.87 -131,316.23 -131,-316.23 z m 60.2,-145.14 h -383.5 l -73.2,-176.99 h -195.8 l 368.1,825.97 h 188.8 l 369.3,-825.97 h -200.6 l -73.1,176.99"
         style="fill:#c7b980;fill-opacity:1;fill-rule:nonzero;stroke:none"
         id="path74" /><path
         d="m 15965.9,2200.71 v -825.97 h -191.2 v 338.65 h -375.2 v -338.65 h -191.1 v 825.97 h 191.1 v -325.67 h 375.2 v 325.67 h 191.2"
         style="fill:#c7b980;fill-opacity:1;fill-rule:nonzero;stroke:none"
         id="path76" /><path
         d="m 16547.7,2200.71 h 191.1 v -670.22 h 414.2 v -155.75 h -605.3 v 825.97"
         style="fill:#c7b980;fill-opacity:1;fill-rule:nonzero;stroke:none"
         id="path78" /></g></g></svg>
