<?xml version="1.0" encoding="UTF-8" standalone="no"?>
<svg
   xmlns:dc="http://purl.org/dc/elements/1.1/"
   xmlns:cc="http://creativecommons.org/ns#"
   xmlns:rdf="http://www.w3.org/1999/02/22-rdf-syntax-ns#"
   xmlns:svg="http://www.w3.org/2000/svg"
   xmlns="http://www.w3.org/2000/svg"
   xmlns:sodipodi="http://sodipodi.sourceforge.net/DTD/sodipodi-0.dtd"
   xmlns:inkscape="http://www.inkscape.org/namespaces/inkscape"
   version="1.1"
   id="svg2"
   xml:space="preserve"
   width="2405.3"
   height="660"
   viewBox="0 0 2405.3333 660"
   sodipodi:docname="Byron-Sommardahl-Logo-BLK.eps"><metadata
     id="metadata8"><rdf:RDF><cc:Work
         rdf:about=""><dc:format>image/svg+xml</dc:format><dc:type
           rdf:resource="http://purl.org/dc/dcmitype/StillImage" /></cc:Work></rdf:RDF></metadata><defs
     id="defs6" /><sodipodi:namedview
     pagecolor="#ffffff"
     bordercolor="#666666"
     borderopacity="1"
     objecttolerance="10"
     gridtolerance="10"
     guidetolerance="10"
     inkscape:pageopacity="0"
     inkscape:pageshadow="2"
     inkscape:window-width="640"
     inkscape:window-height="480"
     id="namedview4" /><g
     id="g12"
    
    
     transform="matrix(0.1,0,0,-0.1,0,660)"><path style="fill: #100f0d; fill-rule: nonzero; stroke: none; fill-opacity: 1" d="M 18120 -180 H -110 V 5050 H 18120 V -180"
       id="path14"
      >
        
            
            
            
            
            
            
            
            
            
            
            
            
            
            
            
            
            
            
            
            
            
            
            
            
            
            
            
            
            
            
            
            
            </path>
        <path style="fill: #a78842; fill-rule: nonzero; stroke: none; fill-opacity: 1" id="path16" d="M 3724.1 2477.2 C 3725.9 3286 3058 3970.8 2212 3952.7 C 1427.6 3935.8 763.8 3298.8 767.1 2467.7 C 770.4 1651.3 1428.7 990.4 2257.7 996.4 c 834.1 6.1 1470 688.1 1466.3 1480.7 z m 95.8 -2.5 C 3824.6 1607 3112.3 897.9 2245 898 C 1382.1 898 669.1 1601.4 669.5 2474.8 C 669.9 3345.4 1380.6 4050.8 2246.6 4050 c 869.6 -0.9 1577.3 -711.7 1573.2 -1575.3"/>
        <path style="fill: #4c1c1c; fill-rule: nonzero; stroke: none; fill-opacity: 1" id="path18" d="M 3096 2274.4 c -27.5 -0.2 -45.8 -17.8 -46 -44.3 c -0.3 -27.6 19.3 -48.2 46.1 -48.6 c 26.9 -0.3 46.9 19.9 47 47.4 c 0.2 29.4 -16.7 45.7 -47.1 45.5 z m 69.6 570.4 c 0 140.6 0.1 281.2 -0.1 421.8 c -0.1 39.5 -9.9 51.8 -48.3 60.5 c -43.4 9.8 -86.9 19 -130.4 28.2 c -228.1 48 -456.2 95.9 -684.3 144.1 c -34.6 7.3 -68.7 8.4 -103.5 1 c -271.5 -57.7 -543.1 -115 -814.6 -172.4 c -45 -9.5 -51.5 -17.1 -51.5 -62 c -0.1 -276.3 0.3 -552.7 -0.2 -829 c -0.2 -89.6 10.5 -177.6 31.1 -264.7 c 47.5 -201.3 145 -374.9 290.2 -521.4 c 93.4 -94.2 200 -171.2 317.3 -233.4 c 73.8 -39.1 150.1 -72.1 229.3 -98.5 c 32.5 -10.8 63.4 -12 96.2 0.2 c 47.2 17.4 95 33.4 141 53.9 c 131.1 58.4 251.2 134.1 357.8 230.4 c 103.1 93.2 187.1 201.4 249.7 325.8 c 18.3 36.4 35.5 73.3 47.7 112.2 c 7.3 23.2 -4.6 46 -26 55 c -20.9 8.8 -46.8 1.3 -59 -17.8 c -4.2 -6.4 -7 -13.8 -9.8 -21 c -50.9 -128.8 -124.5 -242.6 -222.5 -340.8 c -128.1 -128.3 -279.4 -220 -447.4 -285.8 c -6.3 -2.5 -12.8 -4.6 -19.4 -6.1 c -9.7 -2.3 -14.7 1.7 -14.7 11.9 c 0 32 0.1 64 -0.1 96 c -0.1 9 3.9 14.6 12.1 17.6 c 6.4 2.3 12.8 4.5 19.2 6.6 c 108.6 35.5 209.3 86.3 301.5 153.9 c 100.7 73.8 183.7 163.7 244.7 272.7 c 75.4 134.8 110 280.2 109.7 434.4 c -0.4 220.1 0 440.2 -0.1 660.3 c 0 8.7 0 17.5 -0.9 26.1 c -1.8 17 -11.1 28.6 -27.3 34.3 c -7.3 2.5 -14.8 4.5 -22.4 6 c -139.4 27.9 -278.8 55.6 -418.2 83.5 c -65.4 13.1 -130.8 26.7 -196.3 39.2 c -16.4 3.1 -23 10.2 -22.4 27.1 c 1.1 30 -0.1 60.1 0.5 90.2 c 0.3 17.3 1.9 18.4 18.7 14.9 c 37 -7.5 73.8 -15.6 110.7 -23.4 c 134.4 -28.3 268.8 -56.5 403.2 -84.8 c 72.9 -15.3 145.8 -30.4 218.6 -46 c 23.6 -5.1 26.9 -10.5 25.3 -34 c -0.9 -13.5 -1.9 -27.1 -1.9 -40.6 c -0.1 -245.3 -0.1 -490.6 -0.2 -735.9 c 0 -12.7 0.7 -25.2 4 -37.4 c 5.5 -20.5 22.9 -34.3 44.5 -35.2 c 17.4 -0.8 35.7 11.7 42.8 29.5 c 5.5 13.8 5.8 28.3 5.8 42.9 c -0.1 136.7 -0.1 273.4 -0.1 410.1 z M 2244.9 1071 c -775.5 0.2 -1404.8 631.7 -1402.7 1407.5 c 2.1 773.7 630.3 1400.5 1404.7 1399.3 c 788.4 -1.2 1405.2 -643 1402.6 -1407 c -2.6 -772.7 -630.5 -1400 -1404.5 -1399.8"/>
        <path style="fill: #a78842; fill-rule: nonzero; stroke: none; fill-opacity: 1" id="path20" d="M 2201.4 1419 c 0 40.9 -0.1 77.7 0.1 114.4 c 0 10 -3.9 16.6 -13.8 19.4 c -6.5 1.9 -12.9 4.1 -19.3 6.3 c -165.1 56.3 -310.9 143.1 -430.2 271.9 c -90.6 97.9 -152.9 211.5 -188.7 339.6 c -25.7 92 -35.7 186 -34.7 281.4 c 0.5 50.4 0.1 100.8 0.1 151.2 c 0 19.3 4.4 36.7 22 47.7 c 29.7 18.5 67.3 -0.9 69.8 -37.5 c 2.1 -30.9 0.6 -62 0.8 -93 c 0.7 -77.4 -1.9 -154.7 10.6 -231.9 c 25.6 -157.8 91.1 -295.4 202.4 -410.1 c 112.5 -115.9 249.5 -191.7 402.3 -240.8 c 18.4 -5.9 35.9 -4.4 54 1.4 c 101.2 32.6 196.5 77.3 282.9 139.6 c 212.5 153.3 323 361.7 327.3 623.3 c 3.4 209.3 0.8 418.8 0.8 628.2 c 0 28.6 -0.7 28.9 -27.5 34.2 c -190.7 37.6 -381.4 75.1 -572 113.3 c -27.2 5.5 -53.2 5.5 -80.4 0 c -140.3 -28.5 -280.7 -56 -421.1 -83.8 c -50.3 -10 -100.6 -19.8 -150.8 -29.8 c -28.4 -5.7 -28.3 -5.9 -28.5 -36.1 c -0.1 -16.5 0.9 -33 -0.6 -49.4 c -2.4 -27.5 -23 -47 -47.1 -46.2 c -23.3 0.7 -43.5 19.5 -44.4 45.6 c -1.4 39.7 -1.3 79.5 0.2 119.2 c 0.8 22.4 13.9 37.6 36.6 43.1 c 6.6 1.6 13.1 3.4 19.8 4.8 c 159.3 31.7 318.7 63.3 478.1 94.9 c 41.7 8.3 83.6 16 125.3 24.2 c 25.2 5 25.9 5.8 26.1 32.5 c 0.2 28.1 0.4 56.2 -0.1 84.3 c -0.4 22.1 -2.2 23.4 -23.9 19 c -45.5 -9.3 -90.9 -18.9 -136.3 -28.5 c -196.8 -41.7 -393.5 -83.4 -590.3 -125.1 c -28.8 -6.1 -28.8 -5.8 -28.8 -35.4 c 0 -238.5 -0.2 -477 0.2 -715.5 c 0.1 -85.3 6.3 -170.1 21.9 -254.2 c 37.3 -200.8 126.6 -375.2 268.4 -521.9 c 107 -110.7 233.6 -194.2 373.6 -257.3 c 35.9 -16.2 71.9 -32.9 115.2 -43.2 z m 964.1 1425.8 c 0 -136.7 -0.1 -273.4 0.1 -410.1 c 0 -14.7 -0.3 -29.1 -5.8 -42.9 c -7.1 -17.9 -25.4 -30.3 -42.8 -29.5 c -21.6 0.9 -39 14.7 -44.5 35.2 c -3.3 12.3 -4 24.7 -4 37.4 c 0.1 245.3 0.1 490.6 0.2 735.9 c 0 13.5 1 27.1 1.9 40.6 c 1.6 23.5 -1.7 28.9 -25.3 34 c -72.8 15.6 -145.7 30.7 -218.6 46 c -134.4 28.2 -268.8 56.5 -403.2 84.8 c -36.9 7.8 -73.8 15.8 -110.7 23.4 c -16.9 3.4 -18.4 2.4 -18.7 -14.9 c -0.5 -30.1 0.6 -60.1 -0.5 -90.2 c -0.6 -16.9 5.9 -24 22.4 -27.1 c 65.5 -12.4 130.9 -26.1 196.3 -39.2 c 139.4 -27.9 278.8 -55.6 418.2 -83.5 c 7.6 -1.5 15.1 -3.4 22.4 -6 c 16.2 -5.6 25.5 -17.2 27.3 -34.3 c 0.9 -8.7 0.9 -17.4 0.9 -26.1 c 0 -220.1 -0.4 -440.2 0.1 -660.3 c 0.3 -154.3 -34.3 -299.7 -109.7 -434.4 c -61 -109 -144.1 -198.9 -244.7 -272.7 c -92.2 -67.6 -192.9 -118.4 -301.5 -153.9 c -6.4 -2.1 -12.8 -4.3 -19.2 -6.6 c -8.2 -2.9 -12.2 -8.5 -12.1 -17.6 c 0.2 -32 0.1 -64 0.1 -96 c 0 -10.2 5 -14.2 14.7 -11.9 c 6.6 1.6 13.1 3.7 19.4 6.1 c 167.9 65.8 319.3 157.5 447.4 285.8 c 98 98.1 171.6 212 222.5 340.8 c 2.8 7.2 5.7 14.6 9.8 21 c 12.3 19.1 38.1 26.5 59 17.8 c 21.4 -9 33.3 -31.8 26 -55 c -12.3 -38.9 -29.4 -75.8 -47.7 -112.2 c -62.6 -124.4 -146.6 -232.6 -249.7 -325.8 c -106.6 -96.3 -226.7 -172 -357.8 -230.4 c -46 -20.5 -93.8 -36.4 -141 -53.9 c -32.8 -12.1 -63.7 -11 -96.2 -0.2 c -79.3 26.4 -155.6 59.3 -229.3 98.5 c -117.2 62.2 -223.8 139.2 -317.3 233.4 c -145.2 146.5 -242.8 320.1 -290.2 521.4 c -20.5 87 -31.2 175.1 -31.1 264.7 c 0.6 276.3 0.1 552.7 0.2 829 c 0 44.8 6.5 52.4 51.5 62 c 271.6 57.4 543.1 114.7 814.6 172.4 c 34.8 7.4 69 6.3 103.5 -1 c 228.1 -48.1 456.2 -96 684.3 -144.1 c 43.5 -9.2 87 -18.4 130.4 -28.2 c 38.4 -8.7 48.3 -20.9 48.3 -60.5 c 0.2 -140.6 0.1 -281.2 0.1 -421.8"/>
        <path style="fill: #a78842; fill-rule: nonzero; stroke: none; fill-opacity: 1" id="path22" d="M 3096 2274.4 c 30.4 0.3 47.3 -16 47.1 -45.5 c -0.1 -27.6 -20.2 -47.8 -47 -47.4 c -26.8 0.3 -46.4 21 -46.1 48.6 c 0.3 26.5 18.5 44.1 46 44.3"/>
        <path style="fill: #4c1c1c; fill-rule: nonzero; stroke: none; fill-opacity: 1" id="path24" d="M 1560.5 2841.4 c -24.5 -0.3 -45.9 -22.1 -45.7 -46.8 c 0.2 -25.2 20.7 -44.6 46.8 -44.4 c 26.1 0.2 45.4 19.6 45.5 45.6 c 0.1 24.4 -21.8 45.8 -46.6 45.5 z M 2752.4 2225.7 c -0.4 24.5 -22.2 46 -46.8 46.3 c -23.9 0.3 -45.8 -22.4 -45.3 -47.1 c 0.5 -25.7 20.5 -45 46.5 -44.9 c 25.8 0.1 46.1 20.5 45.6 45.8 z m -551 -1.6 c 0.3 26.6 -18.6 47.3 -43.9 47.9 c -24.5 0.6 -46.6 -20.5 -47.6 -45.4 c -1 -24.8 19.6 -46 45.3 -46.5 c 27.7 -0.6 45.9 16.8 46.2 44.1 z m 91.6 137.8 c 25.5 -0.4 46.3 19.4 47 44.7 c 0.8 26.8 -19.9 47.9 -46.9 47.7 c -25.6 -0.2 -45.4 -20.3 -45.5 -46 c -0.1 -25.6 19.9 -46 45.3 -46.4 z m 139.6 -181.9 c 0 0 0 -0.1 0 -0.1 c 29 0 58 -0.5 87 0.1 c 29.8 0.6 45.6 14.1 47.9 39.5 c 2.7 28.9 -11.3 46 -42.3 51.5 c -5.7 1 -11.5 1.6 -17.3 1.6 c -51.2 0.1 -102.5 0.2 -153.7 0 c -6.7 0 -13.5 -0.8 -20.1 -2.2 c -28.2 -6 -43.1 -25 -40.4 -51 c 2.4 -23.4 21.1 -38.9 48.9 -39.3 c 30 -0.5 59.9 -0.1 89.9 -0.1 z m -549.9 -0.1 c 0 0.1 0 0.3 0 0.4 c 31.9 0 63.9 -0.8 95.8 0.3 c 21.5 0.8 37.9 17.6 40.8 38.5 c 2.8 20 -9.6 41.3 -29.1 48.5 c -11.9 4.4 -24.4 5.3 -37.1 5.2 c -47.4 -0.3 -94.8 0 -142.2 -0.1 c -7.7 0 -15.6 0.1 -23.1 -1.2 c -28.9 -4.8 -45 -23.3 -43.2 -48.8 c 1.9 -27.6 17.6 -42 48.2 -42.7 c 30 -0.7 60 -0.1 90 -0.1 z m 733.7 274.5 c -22.2 0 -44.5 0 -66.7 0 c -24.2 0 -48.4 0.8 -72.5 -0.3 c -28.4 -1.4 -45.2 -19.6 -45 -46.3 c 0.2 -26.5 17.5 -43.8 45.8 -45.9 c 3.9 -0.3 7.7 -0.1 11.6 -0.1 c 82.2 0 164.4 -0.1 246.6 0 c 8.7 0 17.7 -0.2 25.9 2 c 34.8 9.2 47 48.6 24 75.6 c -10.3 12.1 -24.1 15.1 -39.1 15.1 c -43.5 -0.1 -87 0 -130.6 0 z m -90.4 365.9 c -13.1 -15.3 -30.5 -22.3 -44.9 -33.2 c -11.6 -8.7 -23.9 -16.4 -35.2 -25.5 c -15.9 -12.7 -16.3 -30.4 -12 -47.8 c 4.4 -17.8 18.5 -26.4 35.6 -30.2 c 14.3 -3.2 26.6 2.6 38.1 10.2 c 42 27.8 82.8 57.3 125.9 83.2 c 33.4 20.2 36.6 64.9 -0.3 87.3 c -42.1 25.6 -82.4 54.4 -123.5 81.7 c -4 2.7 -8.1 5.5 -12.4 7.4 c -21.7 9.5 -44.6 3.9 -57 -13.7 c -13.1 -18.6 -10.7 -44 6 -60.8 c 12.4 -12.4 28.1 -20.5 42.3 -30.6 c 12.3 -8.7 26.6 -15.2 37.4 -28.1 z m -460.4 -89.8 c -2.2 15.5 -8.4 29 -22.6 38.1 c -17.1 11 -33.8 22.4 -50.6 33.9 c -25.4 17.2 -25.3 19.2 1.1 36.9 c 13.6 9.2 27.6 17.8 41.2 27 c 6.4 4.3 12.9 8.8 18.1 14.4 c 24.1 26.6 11.9 65.4 -22.6 75.6 c -18.4 5.4 -32.1 -3 -45.8 -11.9 c -40.5 -26.4 -80.5 -53.4 -120.8 -80.3 c -3.2 -2.1 -6.3 -4.5 -9.3 -7 c -24.6 -20.9 -25.3 -51.3 -1.4 -72.9 c 5 -4.5 10.8 -8.1 16.4 -11.9 c 37 -24.6 74.1 -49.2 111.2 -73.8 c 8.1 -5.3 16 -10.6 25.5 -13.5 c 29.1 -8.9 60.9 14.8 59.7 45.3 z m 180.1 -916.8 c 0 -0.1 0 -0.1 0 -0.2 c 56.1 0 112.2 0 168.3 0 c 8.7 0 17.5 -0.4 26.1 1 c 27.6 4.5 43.7 32.5 34.6 58.9 c -7 20.2 -20.1 34.5 -61.3 31.8 c -30 -1.9 -59.9 -2 -89.8 -2.2 c -80.3 -0.3 -160.6 0 -240.8 0 c -8.7 0 -17.5 0.3 -26.1 -0.7 c -21.5 -2.5 -34.8 -16.6 -36.9 -38.1 c -2.9 -29.2 15.2 -50 46 -50.4 c 60 -0.7 119.9 -0.2 179.9 -0.2 z m -316.5 548.1 c 0 -0.1 0 -0.1 0 -0.1 c 54.3 0 108.6 0 162.9 0.1 c 8.7 0 17.6 -0.5 26.1 1.1 c 24 4.6 37.9 23.3 37 48.1 c -0.9 22.9 -15.8 39.5 -39.5 42.8 c -7.6 1.1 -15.5 0.6 -23.2 0.6 c -109.5 0.1 -219.1 0.1 -328.6 0.1 c -8.7 0 -17.6 0.5 -26.1 -0.9 c -24.5 -3.9 -38.9 -21.8 -38.4 -46.7 c 0.5 -27.7 18.1 -44.5 49.6 -44.8 c 60.1 -0.6 120.2 -0.2 180.3 -0.2 z m 405.5 639.1 c 0 26.2 -11.4 42 -32.6 46.6 c -23.7 5.2 -43.2 -3.4 -53.3 -24.4 c -3.7 -7.7 -6 -16.3 -8.1 -24.7 c -26.9 -106.8 -53.8 -213.5 -80.4 -320.4 c -3.3 -13.1 -7.4 -26 -7.1 -39.8 c 0.6 -25.1 12 -40 36 -45.5 c 21.8 -4.9 39.5 3.6 49.7 24.9 c 3.7 7.8 6.1 16.3 8.2 24.7 c 27 106.8 53.9 213.5 80.5 320.4 c 3.2 13 8.4 25.9 7.1 38.2 z m -87.9 -912.7 c -113.3 0 -226.6 0 -340 0 c -9.7 0 -19.4 0.4 -29 -0.6 c -23.1 -2.3 -39.4 -18.3 -42.5 -40.9 c -2.7 -19.1 10.7 -39.3 30.8 -47.8 c 10.3 -4.3 20.9 -3.7 31.5 -3.7 c 233.4 -0.1 466.8 -0.1 700.3 0 c 9.6 0 19.2 -0.3 28.7 2.8 c 23 7.4 35.4 24.7 33.5 47.9 c -1.8 21.3 -16.6 37.8 -38.5 41.2 c -9.5 1.5 -19.3 1 -29 1 c -115.3 0.1 -230.5 0 -345.8 0.1 z m -45.5 -669.2 c -43.2 10.3 -79.3 27 -115.2 43.2 c -140 63.1 -266.6 146.6 -373.6 257.3 c -141.8 146.7 -231.1 321.1 -268.4 521.9 c -15.6 84 -21.8 168.9 -21.9 254.2 c -0.4 238.5 -0.2 477 -0.2 715.5 c 0 29.6 0 29.3 28.8 35.4 c 196.8 41.6 393.5 83.4 590.3 125.1 c 45.4 9.6 90.8 19.2 136.3 28.5 c 21.7 4.4 23.5 3.1 23.9 -19 c 0.5 -28.1 0.3 -56.2 0.1 -84.3 c -0.2 -26.7 -0.9 -27.6 -26.1 -32.5 c -41.8 -8.2 -83.6 -16 -125.3 -24.2 c -159.4 -31.6 -318.7 -63.2 -478.1 -94.9 c -6.6 -1.3 -13.2 -3.2 -19.8 -4.8 c -22.7 -5.5 -35.8 -20.7 -36.6 -43.1 c -1.5 -39.7 -1.6 -79.5 -0.2 -119.2 c 0.9 -26.1 21.1 -44.9 44.4 -45.6 c 24.1 -0.7 44.7 18.7 47.1 46.2 c 1.4 16.4 0.5 32.9 0.6 49.4 c 0.2 30.3 0.1 30.4 28.5 36.1 c 50.3 10.1 100.6 19.9 150.8 29.8 c 140.4 27.8 280.8 55.4 421.1 83.8 c 27.2 5.5 53.2 5.4 80.4 0 c 190.6 -38.2 381.3 -75.7 572 -113.3 c 26.9 -5.3 27.5 -5.6 27.5 -34.2 c 0 -209.4 2.6 -418.8 -0.8 -628.2 c -4.3 -261.6 -114.8 -470 -327.3 -623.3 c -86.4 -62.3 -181.6 -107 -282.9 -139.6 c -18.1 -5.8 -35.6 -7.3 -54 -1.4 c -152.8 49.1 -289.8 125 -402.3 240.8 c -111.4 114.7 -176.8 252.4 -202.4 410.1 c -12.5 77.1 -9.9 154.4 -10.6 231.9 c -0.3 31 1.2 62.1 -0.8 93 c -2.5 36.6 -40.1 56 -69.8 37.5 c -17.6 -11 -22 -28.4 -22 -47.7 c 0 -50.4 0.4 -100.8 -0.1 -151.2 c -1 -95.4 9 -189.5 34.7 -281.4 c 35.8 -128.1 98.1 -241.8 188.7 -339.6 c 119.3 -128.9 265.1 -215.7 430.2 -271.9 c 6.4 -2.2 12.8 -4.5 19.3 -6.3 c 9.9 -2.8 13.9 -9.4 13.8 -19.4 c -0.1 -36.7 -0.1 -73.4 -0.1 -114.4"/>
        <path style="fill: #a78842; fill-rule: nonzero; stroke: none; fill-opacity: 1" id="path26" d="M 2247 2088.2 c 115.3 0 230.5 0 345.8 -0.1 c 9.7 0 19.5 0.5 29 -1 c 21.8 -3.4 36.7 -20 38.5 -41.2 c 1.9 -23.3 -10.5 -40.5 -33.5 -47.9 c -9.5 -3.1 -19.1 -2.8 -28.7 -2.8 c -233.4 -0.1 -466.8 -0.1 -700.3 0 c -10.6 0 -21.2 -0.6 -31.5 3.7 c -20.1 8.4 -33.5 28.7 -30.8 47.8 c 3.2 22.6 19.5 38.6 42.5 40.9 c 9.6 0.9 19.4 0.6 29 0.6 c 113.3 0 226.6 0 340 0"/>
        <path style="fill: #a78842; fill-rule: nonzero; stroke: none; fill-opacity: 1" id="path28" d="M 2334.9 3000.9 c 1.3 -12.3 -3.8 -25.2 -7.1 -38.2 c -26.6 -106.8 -53.5 -213.6 -80.5 -320.4 c -2.1 -8.4 -4.5 -16.9 -8.2 -24.7 c -10.2 -21.3 -27.9 -29.9 -49.7 -24.9 c -24 5.4 -35.5 20.3 -36 45.5 c -0.3 13.9 3.9 26.8 7.1 39.8 c 26.6 106.8 53.5 213.6 80.4 320.4 c 2.1 8.4 4.4 16.9 8.1 24.7 c 10.1 21 29.5 29.6 53.3 24.4 c 21.1 -4.6 32.5 -20.4 32.6 -46.6"/>
        <path style="fill: #a78842; fill-rule: nonzero; stroke: none; fill-opacity: 1" id="path30" d="M 1929.4 2361.8 c -60.1 0 -120.2 -0.5 -180.3 0.2 c -31.5 0.3 -49.2 17.2 -49.6 44.8 c -0.4 24.9 13.9 42.8 38.4 46.7 c 8.5 1.4 17.4 0.9 26.1 0.9 c 109.5 0 219.1 0 328.6 -0.1 c 7.8 0 15.6 0.4 23.2 -0.6 c 23.6 -3.3 38.6 -19.9 39.5 -42.8 c 0.9 -24.8 -12.9 -43.5 -37 -48.1 c -8.4 -1.6 -17.4 -1.1 -26.1 -1.1 c -54.3 -0.1 -108.6 -0.1 -162.9 -0.1 c 0 0.1 0 0.1 0 0.1"/>
        <path style="fill: #a78842; fill-rule: nonzero; stroke: none; fill-opacity: 1" id="path32" d="M 2245.8 1813.7 c -60 0 -119.9 -0.5 -179.9 0.2 c -30.9 0.4 -48.9 21.2 -46 50.4 c 2.1 21.5 15.4 35.5 36.9 38.1 c 8.6 1 17.4 0.7 26.1 0.7 c 80.3 0 160.6 -0.3 240.8 0 c 29.9 0.1 59.8 0.3 89.8 2.2 c 41.2 2.6 54.3 -11.6 61.3 -31.8 c 9.1 -26.4 -6.9 -54.4 -34.6 -58.9 c -8.5 -1.4 -17.4 -1 -26.1 -1 c -56.1 -0.1 -112.2 0 -168.3 0 c 0 0.1 0 0.1 0 0.2"/>
        <path style="fill: #a78842; fill-rule: nonzero; stroke: none; fill-opacity: 1" id="path34" d="M 2065.7 2730.5 c 1.2 -30.5 -30.6 -54.1 -59.7 -45.3 c -9.5 2.9 -17.5 8.1 -25.5 13.5 c -37.1 24.6 -74.1 49.1 -111.2 73.8 c -5.6 3.8 -11.5 7.4 -16.4 11.9 c -23.8 21.6 -23.1 52 1.4 72.9 c 3 2.5 6.1 4.8 9.3 7 c 40.2 26.8 80.3 53.8 120.8 80.3 c 13.7 8.9 27.4 17.4 45.8 11.9 c 34.5 -10.2 46.8 -49 22.6 -75.6 c -5.1 -5.6 -11.7 -10.1 -18.1 -14.4 c -13.6 -9.2 -27.6 -17.8 -41.2 -27 c -26.4 -17.7 -26.4 -19.7 -1.1 -36.9 c 16.8 -11.4 33.6 -22.9 50.6 -33.9 c 14.2 -9.1 20.4 -22.6 22.6 -38.1"/>
        <path style="fill: #a78842; fill-rule: nonzero; stroke: none; fill-opacity: 1" id="path36" d="M 2526.1 2820.3 c -10.8 12.9 -25.1 19.3 -37.4 28.1 c -14.2 10.1 -29.8 18.1 -42.3 30.6 c -16.8 16.7 -19.2 42.1 -6 60.8 c 12.4 17.6 35.3 23.2 57 13.7 c 4.4 -1.9 8.4 -4.8 12.4 -7.4 c 41.1 -27.3 81.3 -56.1 123.5 -81.7 c 36.9 -22.4 33.8 -67.1 0.3 -87.3 c -43 -26 -83.9 -55.5 -125.9 -83.2 c -11.4 -7.6 -23.8 -13.3 -38.1 -10.2 c -17.1 3.8 -31.2 12.4 -35.6 30.2 c -4.3 17.5 -3.9 35.2 12 47.8 c 11.3 9 23.7 16.7 35.2 25.5 c 14.4 10.9 31.8 17.9 44.9 33.2"/>
        <path style="fill: #a78842; fill-rule: nonzero; stroke: none; fill-opacity: 1" id="path38" d="M 2616.5 2454.4 c 43.5 0 87 -0.1 130.6 0 c 15.1 0 28.8 -3 39.1 -15.1 c 23 -27 10.8 -66.4 -24 -75.6 c -8.2 -2.2 -17.2 -1.9 -25.9 -2 c -82.2 -0.1 -164.4 0 -246.6 0 c -3.9 0 -7.8 -0.2 -11.6 0.1 c -28.3 2.1 -45.6 19.4 -45.8 45.9 c -0.2 26.7 16.5 44.9 45 46.3 c 24.1 1.2 48.4 0.3 72.5 0.3 c 22.3 0 44.5 0 66.7 0"/>
        <path style="fill: #a78842; fill-rule: nonzero; stroke: none; fill-opacity: 1" id="path40" d="M 1882.8 2179.9 c -30 0 -60 -0.5 -90 0.1 c -30.7 0.7 -46.3 15.1 -48.2 42.7 c -1.8 25.5 14.3 44 43.2 48.8 c 7.6 1.3 15.4 1.2 23.1 1.2 c 47.4 0.1 94.8 -0.2 142.2 0.1 c 12.7 0.1 25.3 -0.8 37.1 -5.2 c 19.5 -7.2 32 -28.5 29.1 -48.5 c -3 -20.8 -19.3 -37.7 -40.8 -38.5 c -31.9 -1.1 -63.9 -0.3 -95.8 -0.3 c 0 -0.1 0 -0.3 0 -0.4"/>
        <path style="fill: #a78842; fill-rule: nonzero; stroke: none; fill-opacity: 1" id="path42" d="M 2432.7 2179.9 c -30 0 -60 -0.4 -89.9 0.1 c -27.7 0.5 -46.4 16 -48.9 39.3 c -2.7 26 12.2 45 40.4 51 c 6.5 1.4 13.4 2.2 20.1 2.2 c 51.2 0.2 102.5 0.1 153.7 0 c 5.8 0 11.6 -0.6 17.3 -1.6 c 31 -5.5 45 -22.6 42.3 -51.5 c -2.3 -25.4 -18.1 -38.9 -47.9 -39.5 c -29 -0.6 -58 -0.1 -87 -0.1 c 0 0 0 0.1 0 0.1"/>
        <path style="fill: #a78842; fill-rule: nonzero; stroke: none; fill-opacity: 1" id="path44" d="M 2293.1 2361.9 c -25.4 0.4 -45.4 20.8 -45.3 46.4 c 0.1 25.8 19.9 45.8 45.5 46 c 26.9 0.2 47.7 -20.9 46.9 -47.7 c -0.8 -25.3 -21.6 -45.1 -47 -44.7"/>
        <path style="fill: #a78842; fill-rule: nonzero; stroke: none; fill-opacity: 1" id="path46" d="M 2201.4 2224.1 c -0.3 -27.3 -18.6 -44.7 -46.2 -44.1 c -25.7 0.6 -46.4 21.8 -45.3 46.5 c 1.1 24.9 23.1 46 47.6 45.4 c 25.3 -0.6 44.2 -21.2 43.9 -47.9"/>
        <path style="fill: #a78842; fill-rule: nonzero; stroke: none; fill-opacity: 1" id="path48" d="M 2752.4 2225.7 c 0.5 -25.3 -19.8 -45.6 -45.6 -45.8 c -26 -0.1 -46 19.2 -46.5 44.9 c -0.5 24.7 21.4 47.4 45.3 47.1 c 24.7 -0.3 46.4 -21.8 46.8 -46.3"/>
        <path style="fill: #a78842; fill-rule: nonzero; stroke: none; fill-opacity: 1" id="path50" d="M 1560.5 2841.4 c 24.8 0.3 46.6 -21.1 46.6 -45.5 c -0.1 -26 -19.4 -45.4 -45.5 -45.6 c -26.1 -0.2 -46.6 19.1 -46.8 44.4 c -0.2 24.6 21.2 46.5 45.7 46.8"/>
        <path style="fill: #c7b980; fill-rule: nonzero; stroke: none; fill-opacity: 1" id="path52" d="M 5046.3 2930.2 c 0 69.6 -53.1 102.7 -152.2 102.7 h -223 v -204.1 h 223 c 99.1 0 152.2 30.7 152.2 101.5 z m -375.2 436.6 v -194.7 h 190 c 93.2 0 144 33 144 97.9 c 0 64.9 -50.7 96.8 -144 96.8 z m 567.6 -456.6 c 0 -142.8 -113.3 -225.4 -330.4 -225.4 h -427.1 v 826 h 403.5 c 206.5 0 312.7 -86.1 312.7 -214.8 c 0 -82.6 -42.5 -146.3 -109.7 -181.7 c 92 -29.5 151 -100.3 151 -204.1"/>
        <path style="fill: #c7b980; fill-rule: nonzero; stroke: none; fill-opacity: 1" id="path54" d="M 6148.4 2977.4 v -292.6 h -191.2 v 295 l -319.8 531 h 202.9 l 220.7 -367 l 220.7 367 h 187.6 L 6148.4 2977.4"/>
        <path style="fill: #c7b980; fill-rule: nonzero; stroke: none; fill-opacity: 1" id="path56" d="M 7274.1 3355 h -155.8 v -287.9 h 155.8 c 116.8 0 175.8 54.3 175.8 144 c 0 90.8 -59 143.9 -175.8 143.9 z m 179.4 -670.2 l -159.3 230.1 h -175.8 v -230.1 h -191.2 v 826 h 357.5 c 220.6 0 358.7 -114.5 358.7 -299.7 c 0 -123.9 -62.5 -214.8 -169.9 -260.8 l 185.3 -265.5 H 7453.5"/>
        <path style="fill: #c7b980; fill-rule: nonzero; stroke: none; fill-opacity: 1" id="path58" d="M 8838.8 3097.7 c 0 156.9 -110.9 264.3 -258.4 264.3 c -147.5 0 -258.4 -107.4 -258.4 -264.3 c 0 -156.9 110.9 -264.3 258.4 -264.3 c 147.5 0 258.4 107.4 258.4 264.3 z m -710.4 0 c 0 245.4 191.2 427.1 451.9 427.1 c 259.6 0 451.9 -180.5 451.9 -427.1 c 0 -246.6 -192.3 -427.1 -451.9 -427.1 c -260.8 0 -451.9 181.7 -451.9 427.1"/>
        <path style="fill: #c7b980; fill-rule: nonzero; stroke: none; fill-opacity: 1" id="path60" d="M 10319.7 3510.7 v -826 h -157 l -411.8 501.5 v -501.5 h -188.8 v 826 h 158.1 l 410.6 -501.5 v 501.5 h 188.8"/>
        <path style="fill: #c7b980; fill-rule: nonzero; stroke: none; fill-opacity: 1" id="path62" d="M 4416.2 1406.2 l 64.9 144 c 69.6 -50.7 173.4 -86.1 272.6 -86.1 c 113.3 0 159.3 37.8 159.3 88.5 c 0 154.6 -480.2 48.4 -480.2 355.2 c 0 140.4 113.3 257.2 348.1 257.2 c 103.8 0 210 -24.8 286.7 -73.2 l -59 -145.1 c -76.7 43.7 -155.8 64.9 -228.9 64.9 c -113.3 0 -156.9 -42.5 -156.9 -94.4 c 0 -152.2 480.3 -47.2 480.3 -350.4 c 0 -138.1 -114.5 -256.1 -350.4 -256.1 c -131 0 -263.1 38.9 -336.3 95.6"/>
        <path style="fill: #c7b980; fill-rule: nonzero; stroke: none; fill-opacity: 1" id="path64" d="M 6278.2 1737.7 c 0 156.9 -110.9 264.3 -258.4 264.3 c -147.5 0 -258.4 -107.4 -258.4 -264.3 c 0 -156.9 110.9 -264.3 258.4 -264.3 c 147.5 0 258.4 107.4 258.4 264.3 z m -710.4 0 c 0 245.4 191.2 427.1 451.9 427.1 c 259.6 0 451.9 -180.5 451.9 -427.1 c 0 -246.6 -192.3 -427.1 -451.9 -427.1 c -260.8 0 -451.9 181.7 -451.9 427.1"/>
        <path style="fill: #c7b980; fill-rule: nonzero; stroke: none; fill-opacity: 1" id="path66" d="M 7753.2 1324.7 l -1.2 495.6 l -243.1 -408.3 h -86.2 L 7180.9 1809.7 v -485 h -179.4 v 826 h 158.1 l 309.2 -513.3 l 304.4 513.3 h 156.9 l 2.4 -826 h -179.4"/>
        <path style="fill: #c7b980; fill-rule: nonzero; stroke: none; fill-opacity: 1" id="path68" d="M 9265.9 1324.7 l -1.2 495.6 l -243.1 -408.3 h -86.1 l -241.9 397.6 v -485 h -179.3 v 826 h 158.1 l 309.1 -513.3 l 304.4 513.3 h 156.9 l 2.4 -826 h -179.3"/>
        <path style="fill: #c7b980; fill-rule: nonzero; stroke: none; fill-opacity: 1" id="path70" d="M 10510.8 1646.9 l -131 316.2 l -131 -316.2 z m 60.2 -145.1 h -383.5 l -73.2 -177 h -195.8 l 368.1 826 h 188.8 l 369.3 -826 h -200.6 l -73.1 177"/>
        <path style="fill: #c7b980; fill-rule: nonzero; stroke: none; fill-opacity: 1" id="path72" d="M 11663.7 1995 h -155.8 v -287.9 h 155.8 c 116.8 0 175.8 54.3 175.8 144 c 0 90.9 -59 143.9 -175.8 143.9 z m 179.3 -670.2 l -159.3 230.1 h -175.8 v -230.1 h -191.1 v 826 h 357.5 c 220.6 0 358.7 -114.5 358.7 -299.7 c 0 -123.9 -62.6 -214.8 -169.9 -260.8 l 185.2 -265.5 H 11843"/>
        <path style="fill: #c7b980; fill-rule: nonzero; stroke: none; fill-opacity: 1" id="path74" d="M 12935.7 1481.7 c 164 0 271.4 97.9 271.4 256.1 c 0 158.1 -107.4 256.1 -271.4 256.1 h -174.6 v -512.1 z m -365.8 669 h 375.2 c 270.2 0 455.5 -162.8 455.5 -413 c 0 -250.2 -185.3 -413 -455.5 -413 h -375.2 v 826"/>
        <path style="fill: #c7b980; fill-rule: nonzero; stroke: none; fill-opacity: 1" id="path76" d="M 14402.4 1646.9 l -131 316.2 l -131 -316.2 z m 60.2 -145.1 h -383.5 l -73.2 -177 h -195.8 l 368.1 826 h 188.8 l 369.3 -826 h -200.6 l -73.1 177"/>
        <path style="fill: #c7b980; fill-rule: nonzero; stroke: none; fill-opacity: 1" id="path78" d="M 15965.9 2150.7 v -826 h -191.2 v 338.6 h -375.2 v -338.6 h -191.1 v 826 h 191.1 v -325.7 h 375.2 v 325.7 h 191.2"/>
        <path style="fill: #c7b980; fill-rule: nonzero; stroke: none; fill-opacity: 1" id="path80" d="M 16547.7 2150.7 h 191.1 v -670.2 h 414.2 v -155.8 h -605.3 v 826"/></g></svg>
