<svg height='100px' width='100px'  fill="#000000" xmlns="http://www.w3.org/2000/svg" xmlns:xlink="http://www.w3.org/1999/xlink" version="1.1" x="0px" y="0px" viewBox="0 0 100 100" enable-background="new 0 0 100 100" xml:space="preserve"><path d="M87.61,23.37l-17.187,6.626c-10.951-6.854-16.615-8.308-19.449-8.308c-0.925,0-1.518,0.155-1.874,0.303  c-1.468,0.356-2.942,1.051-4.349,1.916c-5.379-0.373-13.085,2.799-15.519,3.873l-10.799-6.815L2.547,45.348l19.07,13.824  c-0.587,1.466-0.618,2.945-0.078,4.293c1.065,2.654,3.896,3.916,4.216,4.05l0.498-1.179c0.082,0.846,0.237,1.462,0.314,1.729  c0.305,1.854,1.277,2.811,2.05,3.289c0.896,0.557,1.902,0.721,2.779,0.721c0.501,0,0.959-0.055,1.332-0.119  c0.005,0.011,0.009,0.022,0.012,0.032c0.335,1.771,1.319,2.663,2.097,3.103c0.819,0.463,1.738,0.617,2.604,0.617  c0.993,0,1.912-0.203,2.527-0.381c1.28,1.692,3.007,2.264,3.426,2.381c0.699,0.233,1.364,0.351,1.978,0.351  c2.164,0,3.387-1.411,3.943-2.955l4.944,3.132l0.052,0.031c0.157,0.091,1.23,0.681,2.585,0.681c0.525,0,1.091-0.088,1.665-0.327  c1.265-0.529,2.193-1.629,2.771-3.273c0.477,0.138,0.979,0.218,1.499,0.218c1.301,0,2.692-0.497,3.95-1.845l0.107-0.115l0.081-0.135  c0.179-0.298,0.896-1.54,1.23-2.79c0.284,0.04,0.571,0.063,0.859,0.063c1.226,0,2.479-0.389,3.55-1.459  c0.076-0.076,1.563-1.594,2.004-3.872c0.304,0.046,0.611,0.079,0.926,0.079c1.16,0,2.364-0.354,3.403-1.348  c0.093-0.088,2.021-1.967,1.965-5.248c0.667-0.148,1.133-0.388,1.321-0.498l15.743-8.354L87.61,23.37z M28.035,59.17l-0.063,0.09  c-1.184,1.801-1.629,3.617-1.741,5.139c-0.673-0.422-1.561-1.139-1.924-2.045c-0.267-0.665-0.229-1.379,0.117-2.18l0.051-0.135  c0.009-0.027,0.89-2.648,2.952-2.925c0.317,0.085,1.035,0.319,1.69,0.828C28.534,58.537,28.147,59.025,28.035,59.17z M34.278,63.026  c-1.331,2.368-1.784,4.405-1.869,5.953c-0.586,0.122-1.604,0.226-2.226-0.163c-0.135-0.084-0.544-0.341-0.685-1.301l-0.019-0.129  l-0.041-0.126c-0.012-0.031-1.029-3.193,0.992-6.313c0.857-1.092,3.009-3.194,4.45-2.993c0.839,0.116,1.439,1.198,1.798,2.086  l0.041-0.017C35.317,61.234,34.431,62.752,34.278,63.026z M38.984,68.03c-0.438,1.673-0.521,3.188-0.249,4.534  c-0.797,0.178-1.826,0.271-2.432-0.07c-0.218-0.123-0.521-0.373-0.646-1.131l-0.02-0.148l-0.066-0.16  c-0.04-0.104-0.937-2.58,1.307-6.57c0.557-0.994,2.146-3.037,3.522-3.037c0.004,0,0.01,0,0.015,0  c0.646,0.008,1.354,0.534,2.052,1.506C40.204,64.066,39.215,66.511,38.984,68.03z M47.116,70.135l-0.391,2.646l-0.017,0.209  c-0.003,0.213-0.063,2.086-1.338,2.086c-0.3,0-0.657-0.069-1.063-0.208l-0.12-0.036c-0.013-0.002-1.332-0.381-2.077-1.648  c-0.648-1.104-0.724-2.605-0.223-4.469l0.036-0.181c0.048-0.321,0.528-3.112,3.089-3.186C45.478,65.441,47.504,66.081,47.116,70.135  z M76.885,61.983c-1.249,1.194-3.214,0.054-3.613-0.199l-10.147-9.36l-2.021,2.192l10.236,9.441l0.158,0.127  c0.077,0.054,0.166,0.109,0.255,0.164c-0.09,1.611-1.246,2.82-1.252,2.826c-1.318,1.318-3.614-0.023-4.071-0.312l-9.242-8.948  l-2.073,2.143l9.426,9.125l0.096,0.067c0.218,0.153,0.466,0.308,0.737,0.458c-0.093,0.503-0.492,1.41-0.878,2.086  c-1.573,1.562-3.116,0.407-3.56,0.009l-8.546-7.852l-2.018,2.195l8.365,7.685l-0.054-0.015c-0.2,0.772-0.582,1.754-1.261,2.047  c-0.66,0.283-1.502-0.121-1.607-0.174l-5.923-3.75l-0.038,0.058l0.218-1.462l0.009-0.073c0.368-3.749-0.882-5.741-1.997-6.753  c-0.913-0.829-1.885-1.148-2.421-1.268c-1.466-2.613-3.218-3.953-5.215-3.975c-0.016-0.001-0.031-0.001-0.047-0.001  c-0.379,0-0.742,0.051-1.093,0.138c-0.944-2.152-2.297-3.367-4.022-3.604c-1.362-0.186-2.69,0.314-3.832,1.027  c-1.597-1.507-3.571-1.871-3.671-1.889l-0.172-0.029l-0.172,0.01c-2.059,0.125-3.467,1.256-4.382,2.414L6.593,44.599l12.735-19.544  l9.686,6.112l0.74-0.349c1.948-0.919,6.517-2.774,10.612-3.578c-2.714,2.434-4.613,4.792-4.762,4.978l-0.092,0.129  c-2.769,4.35-0.287,6.442-0.168,6.538c1.24,0.987,2.73,1.487,4.43,1.487c0.001,0,0.002,0,0.002,0c4.386,0,8.997-3.425,10.257-4.432  l2.902-0.504c3.126,8.68,12.362,12.414,14.329,13.121l1.536,1.536l4.971,5.068c1.404,2.082,2.864,3.09,4.141,3.539  C78.041,60.785,76.927,61.941,76.885,61.983z M80.794,55.781l-0.088,0.05c-0.075,0.038-0.438,0.211-0.952,0.211  c-1.197,0-2.434-0.915-3.577-2.647l-0.078-0.119l-5.18-5.281l-2.044-2.043l-0.341-0.111c-0.106-0.034-10.699-3.568-13.133-12.49  l-0.356-1.309l-6.311,1.099l-0.311,0.264c-0.047,0.039-4.723,3.985-8.647,3.986c-0.991,0-1.813-0.257-2.496-0.777  c-0.145-0.23-0.257-1.057,0.703-2.597c0.603-0.736,6.62-7.955,11.935-9.155l0.4-0.135c0.104-0.023,0.314-0.057,0.656-0.057  c1.644,0,6.734,0.803,18.49,8.246l0.635,0.401l15.81-6.096l8.323,21.43L80.794,55.781z"></path></svg>