<svg height='100px' width='100px' xmlns:dc="http://purl.org/dc/elements/1.1/" xmlns:cc="http://creativecommons.org/ns#" xmlns:rdf="http://www.w3.org/1999/02/22-rdf-syntax-ns#" xmlns:svg="http://www.w3.org/2000/svg" xmlns="http://www.w3.org/2000/svg" xmlns:sodipodi="http://sodipodi.sourceforge.net/DTD/sodipodi-0.dtd" xmlns:inkscape="http://www.inkscape.org/namespaces/inkscape" viewBox="0 0 16.933333 16.933334" version="1.1" x="0px" y="0px"><g transform="translate(0,-280.06665)"><path style="color:#000000;font-style:normal;font-variant:normal;font-weight:normal;font-stretch:normal;font-size:medium;line-height:normal;font-family:sans-serif;font-variant-ligatures:normal;font-variant-position:normal;font-variant-caps:normal;font-variant-numeric:normal;font-variant-alternates:normal;font-feature-settings:normal;text-indent:0;text-align:start;text-decoration:none;text-decoration-line:none;text-decoration-style:solid;text-decoration-color:#000000;letter-spacing:normal;word-spacing:normal;text-transform:none;writing-mode:lr-tb;direction:ltr;text-orientation:mixed;dominant-baseline:auto;baseline-shift:baseline;text-anchor:start;white-space:normal;shape-padding:0;clip-rule:nonzero;display:inline;overflow:visible;visibility:visible;opacity:1;isolation:auto;mix-blend-mode:normal;color-interpolation:sRGB;color-interpolation-filters:linearRGB;solid-color:#000000;solid-opacity:1;vector-effect:none;fill-opacity:1;fill-rule:nonzero;stroke:none;stroke-width:0.5291667;stroke-linecap:round;stroke-linejoin:round;stroke-miterlimit:4;stroke-dasharray:none;stroke-dashoffset:0;stroke-opacity:1;color-rendering:auto;image-rendering:auto;shape-rendering:auto;text-rendering:auto;enable-background:accumulate" d="m 7.48906,289.77043 c -0.31996,0.10666 -0.60417,0.23307 -0.79882,0.42773 -0.0335,0.0341 -0.0571,0.0766 -0.0684,0.12305 l -1.0586,4.23242 c -0.007,0.0274 -0.007,0.0651 -0.007,0.0651 1e-5,0.14552 0.11907,0.26459 0.26459,0.26458 0.0265,0 0.14601,-10e-6 0.2252,-0.1285 l 1.09771,-1.82617 c -7.4e-4,0.82795 -0.001,1.65589 -1e-5,2.48384 5.2e-4,0.14617 0.11842,0.26514 0.26459,0.26458 h 2.11666 c 0.14541,-5.1e-4 0.26407,-0.11917 0.26459,-0.26458 -10e-4,-0.82795 1e-5,-1.65589 1e-5,-2.48384 l 1.0947,1.82617 c 0.0742,0.1285 0.20171,0.1285 0.22821,0.1285 0.14553,0 0.26459,-0.11906 0.26459,-0.26458 0,0 0,-0.0336 -0.008,-0.0651 l -1.05859,-4.23242 c -0.0118,-0.0466 -0.0361,-0.0892 -0.0703,-0.12305 -0.19465,-0.19466 -0.4769,-0.32107 -0.79687,-0.42773 -0.31997,-0.10666 -0.66738,-0.17879 -0.97623,-0.17879 -0.30885,0 -0.65727,0.0721 -0.97724,0.17879 z m 1.78516,0.50195 c 0.25433,0.0848 0.45389,0.18767 0.5425,0.26127 l 0.60594,2.42233 -0.67188,-1.11914 c -0.0763,-0.12854 -0.19965,-0.12854 -0.22615,-0.12854 -0.14552,0 -0.26458,0.11907 -0.26458,0.26459 -5.9e-4,1.05811 -10e-4,2.11688 -4.5e-4,3.175 l -1.58669,10e-6 c -0.003,-1.05811 -3.6e-4,-2.1169 -3.6e-4,-3.17501 0,-0.14552 -0.11906,-0.26458 -0.26458,-0.26459 -0.0265,0 -0.14967,0 -0.22811,0.12854 l -0.67578,1.125 0.61282,-2.4329 c 0.0631,-0.0528 0.2822,-0.17144 0.53757,-0.25656 0.27534,-0.0918 0.59104,-0.15158 0.81183,-0.15158 0.2208,0 0.53258,0.0598 0.80792,0.15158 z"></path><path style="color:#000000;font-style:normal;font-variant:normal;font-weight:normal;font-stretch:normal;font-size:medium;line-height:normal;font-family:sans-serif;font-variant-ligatures:normal;font-variant-position:normal;font-variant-caps:normal;font-variant-numeric:normal;font-variant-alternates:normal;font-feature-settings:normal;text-indent:0;text-align:start;text-decoration:none;text-decoration-line:none;text-decoration-style:solid;text-decoration-color:#000000;letter-spacing:normal;word-spacing:normal;text-transform:none;writing-mode:lr-tb;direction:ltr;text-orientation:mixed;dominant-baseline:auto;baseline-shift:baseline;text-anchor:start;white-space:normal;shape-padding:0;clip-rule:nonzero;display:inline;overflow:visible;visibility:visible;opacity:1;isolation:auto;mix-blend-mode:normal;color-interpolation:sRGB;color-interpolation-filters:linearRGB;solid-color:#000000;solid-opacity:1;vector-effect:none;fill-opacity:1;fill-rule:nonzero;stroke:none;stroke-width:0.5291667;stroke-linecap:butt;stroke-linejoin:round;stroke-miterlimit:4;stroke-dasharray:none;stroke-dashoffset:0;stroke-opacity:1;paint-order:normal;color-rendering:auto;image-rendering:auto;shape-rendering:auto;text-rendering:auto;enable-background:accumulate" d="m 10.054162,285.6229 c -0.2152707,0 -0.2647319,0.26458 -0.5730932,0.26458 h -1.543574 c -0.1102413,0 -0.2271236,0.0329 -0.3157431,0.1018 -0.088601,0.0689 -0.1381919,0.16084 -0.1658806,0.24392 -0.0401,0.12041 -0.047442,0.22299 -0.047543,0.24494 -0.056801,0.0152 -0.2094548,0.11666 -0.3136768,0.26097 -0.1373082,0.19018 -0.2154899,0.44399 -0.2154899,0.73587 v 0.52917 c 0,0.35278 0.1844754,0.63158 0.396875,0.8015 0.2123996,0.16991 0.4409784,0.25683 0.6614583,0.25683 h 0.2645834 0.79375 c 0.581369,0 1.0583339,-0.47696 1.0583339,-1.05833 0,-0.22009 -0.073324,-0.42116 -0.1906858,-0.59015 0.4162828,-0.14266 0.7198518,-0.53452 0.7198518,-0.99735 0,0 0.0019,-0.14347 -0.04186,-0.30644 -0.0437,-0.16296 -0.147587,-0.4062 -0.417547,-0.47853 -0.0257,-0.007 -0.04596,-0.009 -0.06976,-0.009 z m -0.02429,0.61908 c 0.0225,0.0839 0.02429,0.17467 0.02429,0.17467 0,0.29769 -0.2314765,0.52916 -0.5291671,0.52916 H 8.9958282 c -0.5808689,0 -1.0583334,0.47746 -1.0583334,1.05834 v 0.52916 c -0.044101,0 -0.2129155,-0.0455 -0.3312451,-0.14004 -0.1183296,-0.0947 -0.1979215,-0.21273 -0.1979215,-0.38912 v -0.52917 c 0,-0.19628 0.054615,-0.34064 0.1157552,-0.4253 0.0611,-0.0847 0.1183878,-0.10387 0.1488281,-0.10387 0.1469311,5.3e-4 0.2651443,-0.11765 0.2645833,-0.26458 v -0.26458 h 1.543574 c 0.2739204,0 0.5488042,-0.17467 0.5488032,-0.17467 z m -1.0340448,1.233 c 0.2953994,0 0.5291667,0.23378 0.5291667,0.52917 0,0.2954 -0.2337673,0.52873 -0.5291667,0.52916 H 8.4666615 v -0.52916 c 0,-0.29224 0.2369265,-0.52917 0.5291667,-0.52917 z"></path><path style="color:#000000;font-style:normal;font-variant:normal;font-weight:normal;font-stretch:normal;font-size:medium;line-height:normal;font-family:sans-serif;font-variant-ligatures:normal;font-variant-position:normal;font-variant-caps:normal;font-variant-numeric:normal;font-variant-alternates:normal;font-feature-settings:normal;text-indent:0;text-align:start;text-decoration:none;text-decoration-line:none;text-decoration-style:solid;text-decoration-color:#000000;letter-spacing:normal;word-spacing:normal;text-transform:none;writing-mode:lr-tb;direction:ltr;text-orientation:mixed;dominant-baseline:auto;baseline-shift:baseline;text-anchor:start;white-space:normal;shape-padding:0;clip-rule:nonzero;display:inline;overflow:visible;visibility:visible;opacity:1;isolation:auto;mix-blend-mode:normal;color-interpolation:sRGB;color-interpolation-filters:linearRGB;solid-color:#000000;solid-opacity:1;vector-effect:none;fill-opacity:1;fill-rule:nonzero;stroke:none;stroke-width:0.5291667;stroke-linecap:butt;stroke-linejoin:round;stroke-miterlimit:4;stroke-dasharray:none;stroke-dashoffset:0;stroke-opacity:1;paint-order:normal;color-rendering:auto;image-rendering:auto;shape-rendering:auto;text-rendering:auto;enable-background:accumulate" d="m 3.4395781,286.94581 c -0.7274905,0 -1.3229167,0.59543 -1.3229167,1.32292 0,0.37938 0.1640575,0.72038 0.4221956,0.96222 -0.1324478,0.0522 -0.2588736,0.1116 -0.3705199,0.18603 -0.3388386,0.2259 -0.5808424,0.56877 -0.5808424,0.96842 v 2.11666 c 5.291e-4,0.14541 0.1191736,0.26407 0.2645833,0.26459 h 3.1750001 c 0.1454097,-5.3e-4 0.2640727,-0.11918 0.2645833,-0.26459 v -2.11666 c 0,-0.39966 -0.2435542,-0.74252 -0.5823929,-0.96842 -0.1114372,-0.0743 -0.2375323,-0.13391 -0.369488,-0.18603 0.2583101,-0.24185 0.4227143,-0.5827 0.4227143,-0.96222 0,-0.7275 -0.5954157,-1.32292 -1.3229167,-1.32292 z m 0,0.52917 c 0.4415102,-1e-5 0.79375,0.35224 0.79375,0.79375 0,0.44151 -0.3522398,0.79375 -0.79375,0.79375 -0.4414997,0 -0.7937501,-0.35225 -0.7937501,-0.79375 0,-0.44151 0.3522504,-0.79375 0.7937501,-0.79375 z m 0,2.11667 c 0.3924009,0 0.7416456,0.10789 0.9766855,0.26458 0.2350294,0.15669 0.3462708,0.34252 0.3462312,0.52917 v 1.85208 H 4.2333281 v -1.32292 c 0,-0.15109 -0.1135221,-0.26458 -0.2645834,-0.26458 -0.1462193,0 -0.2645833,0.11833 -0.2645833,0.26458 v 1.32292 H 3.1749947 v -1.32292 c 0,-0.14929 -0.1173321,-0.26458 -0.2645833,-0.26458 -0.1469787,0 -0.2645834,0.11763 -0.2645834,0.26458 v 1.32292 H 2.1166614 v -1.85208 c 0,-0.18665 0.1117176,-0.37248 0.3467497,-0.52917 0.2350399,-0.15669 0.5837661,-0.26458 0.976167,-0.26458 z"></path><path style="color:#000000;font-style:normal;font-variant:normal;font-weight:normal;font-stretch:normal;font-size:medium;line-height:normal;font-family:sans-serif;font-variant-ligatures:normal;font-variant-position:normal;font-variant-caps:normal;font-variant-numeric:normal;font-variant-alternates:normal;font-feature-settings:normal;text-indent:0;text-align:start;text-decoration:none;text-decoration-line:none;text-decoration-style:solid;text-decoration-color:#000000;letter-spacing:normal;word-spacing:normal;text-transform:none;writing-mode:lr-tb;direction:ltr;text-orientation:mixed;dominant-baseline:auto;baseline-shift:baseline;text-anchor:start;white-space:normal;shape-padding:0;clip-rule:nonzero;display:inline;overflow:visible;visibility:visible;opacity:1;isolation:auto;mix-blend-mode:normal;color-interpolation:sRGB;color-interpolation-filters:linearRGB;solid-color:#000000;solid-opacity:1;vector-effect:none;fill-opacity:1;fill-rule:nonzero;stroke:none;stroke-width:0.5291667;stroke-linecap:butt;stroke-linejoin:round;stroke-miterlimit:4;stroke-dasharray:none;stroke-dashoffset:0;stroke-opacity:1;paint-order:normal;color-rendering:auto;image-rendering:auto;shape-rendering:auto;text-rendering:auto;enable-background:accumulate" d="m 13.493745,286.94581 c -0.72749,0 -1.322917,0.59542 -1.322917,1.32292 0,0.3795 0.16468,0.72012 0.42323,0.9617 -0.132603,0.0522 -0.25922,0.11201 -0.371035,0.18655 -0.338852,0.2259 -0.581361,0.56876 -0.581361,0.96842 v 2.11666 c 5.29e-4,0.14617 0.118414,0.26515 0.264583,0.26459 h 3.175 c 0.146169,5.3e-4 0.264062,-0.11842 0.264583,-0.26459 v -2.11666 c 0,-0.39965 -0.243027,-0.74252 -0.581877,-0.96842 -0.111559,-0.0744 -0.237804,-0.13388 -0.370004,-0.18603 0.25835,-0.24161 0.422709,-0.58244 0.422715,-0.96222 -1.1e-5,-0.72749 -0.595427,-1.32292 -1.322917,-1.32292 z m 0,0.52917 c 0.44151,0 0.79375,0.35224 0.79375,0.79375 0,0.4415 -0.35224,0.79375 -0.79375,0.79375 -0.44151,0 -0.79375,-0.35224 -0.79375,-0.79375 0,-0.44151 0.35224,-0.79376 0.79375,-0.79375 z m 0,2.11667 c 0.392409,0 0.742172,0.10789 0.977202,0.26458 0.235039,0.15669 0.345704,0.34252 0.345715,0.52917 v 1.85208 h -0.529167 v -1.32292 c 0,-0.15109 -0.113522,-0.26458 -0.264583,-0.26458 -0.14622,0 -0.264584,0.11833 -0.264584,0.26458 v 1.32292 h -0.529166 v -1.32292 c 0,-0.14929 -0.117332,-0.26458 -0.264584,-0.26458 -0.146978,0 -0.264583,0.11763 -0.264583,0.26458 v 1.32292 h -0.529167 v -1.85208 c 0,-0.18665 0.11016,-0.37248 0.3452,-0.52917 0.235029,-0.15669 0.585316,-0.26458 0.977717,-0.26458 z"></path><path style="color:#000000;font-style:normal;font-variant:normal;font-weight:normal;font-stretch:normal;font-size:medium;line-height:normal;font-family:sans-serif;font-variant-ligatures:normal;font-variant-position:normal;font-variant-caps:normal;font-variant-numeric:normal;font-variant-alternates:normal;font-feature-settings:normal;text-indent:0;text-align:start;text-decoration:none;text-decoration-line:none;text-decoration-style:solid;text-decoration-color:#000000;letter-spacing:normal;word-spacing:normal;text-transform:none;writing-mode:lr-tb;direction:ltr;text-orientation:mixed;dominant-baseline:auto;baseline-shift:baseline;text-anchor:start;white-space:normal;shape-padding:0;clip-rule:nonzero;display:inline;overflow:visible;visibility:visible;opacity:1;isolation:auto;mix-blend-mode:normal;color-interpolation:sRGB;color-interpolation-filters:linearRGB;solid-color:#000000;solid-opacity:1;vector-effect:none;fill-opacity:1;fill-rule:nonzero;stroke:none;stroke-width:0.5291667;stroke-linecap:butt;stroke-linejoin:round;stroke-miterlimit:4;stroke-dasharray:none;stroke-dashoffset:0;stroke-opacity:1;paint-order:normal;color-rendering:auto;image-rendering:auto;shape-rendering:auto;text-rendering:auto;enable-background:accumulate" d="m 8.4666615,281.38956 c -0.581369,0 -1.0583333,0.47698 -1.0583333,1.05834 0,0.25322 0.094237,0.48328 0.24443,0.66611 -0.1652985,0.0571 -0.3213312,0.12671 -0.456819,0.21704 -0.3388413,0.22589 -0.5813611,0.56927 -0.5813611,0.96893 v 1.05833 c 0,0.14613 0.1184593,0.26459 0.2645834,0.26459 0.1461241,0 0.2645833,-0.11846 0.2645833,-0.26459 v -1.05833 c -2.6e-6,-0.18666 0.1117177,-0.37299 0.3467497,-0.52968 0.23504,-0.15669 0.5837582,-0.26407 0.976167,-0.26407 0.3924009,0 0.7421616,0.10738 0.9772015,0.26407 0.23504,0.15669 0.3458052,0.34303 0.3457152,0.52968 v 0.52917 c 0,0.14612 0.1184593,0.26458 0.2645838,0.26458 0.146124,0 0.264583,-0.11846 0.264583,-0.26458 v -0.52917 c -5e-6,-0.39966 -0.243036,-0.74304 -0.5818771,-0.96893 -0.1354375,-0.0903 -0.2911739,-0.15994 -0.456303,-0.21704 0.150196,-0.18283 0.24443,-0.41289 0.24443,-0.66611 0,-0.58136 -0.4769723,-1.05834 -1.0583334,-1.05834 z m 0,0.52917 c 0.2953809,0 0.5291667,0.23379 0.5291667,0.52917 0,0.29539 -0.2337858,0.52916 -0.5291667,0.52916 -0.2953888,0 -0.5291667,-0.23377 -0.5291667,-0.52916 0,-0.29538 0.2337779,-0.52917 0.5291667,-0.52917 z"></path><path style="color:#000000;font-style:normal;font-variant:normal;font-weight:normal;font-stretch:normal;font-size:medium;line-height:normal;font-family:sans-serif;font-variant-ligatures:normal;font-variant-position:normal;font-variant-caps:normal;font-variant-numeric:normal;font-variant-alternates:normal;font-feature-settings:normal;text-indent:0;text-align:start;text-decoration:none;text-decoration-line:none;text-decoration-style:solid;text-decoration-color:#000000;letter-spacing:normal;word-spacing:normal;text-transform:none;writing-mode:lr-tb;direction:ltr;text-orientation:mixed;dominant-baseline:auto;baseline-shift:baseline;text-anchor:start;white-space:normal;shape-padding:0;clip-rule:nonzero;display:inline;overflow:visible;visibility:visible;opacity:1;isolation:auto;mix-blend-mode:normal;color-interpolation:sRGB;color-interpolation-filters:linearRGB;solid-color:#000000;solid-opacity:1;vector-effect:none;fill-opacity:1;fill-rule:nonzero;stroke:none;stroke-width:0.5291667;stroke-linecap:butt;stroke-linejoin:round;stroke-miterlimit:4;stroke-dasharray:none;stroke-dashoffset:0;stroke-opacity:1;paint-order:normal;color-rendering:auto;image-rendering:auto;shape-rendering:auto;text-rendering:auto;enable-background:accumulate" d="m 3.9687447,283.24165 c -0.5813689,0 -1.0583333,0.47696 -1.0583333,1.05833 0,0.25296 0.093993,0.48285 0.2439141,0.66559 -0.165399,0.057 -0.3213339,0.12672 -0.4568217,0.21705 -0.3388492,0.22588 -0.5808424,0.56978 -0.5808424,0.96944 v 0.26459 c 0,0.14612 0.1184592,0.26458 0.2645833,0.26458 0.1461241,0 0.2645833,-0.11846 0.2645833,-0.26458 v -0.26459 c -2.6e-6,-0.18665 0.1117098,-0.37145 0.3467497,-0.52813 0.23504,-0.15669 0.5837661,-0.26562 0.976167,-0.26562 0.3924089,0 0.7421722,0.10893 0.9772016,0.26562 0.2350399,0.15668 0.3457442,0.34148 0.3457151,0.52813 v 1.5875 a 0.26458337,0.26458337 0 0 0 0.2645834,0.26459 0.26458337,0.26458337 0 0 0 0.2645833,-0.26459 v -1.5875 c 0,-0.39966 -0.2435437,-0.74356 -0.5823929,-0.96944 -0.1351386,-0.0901 -0.2906607,-0.15957 -0.4552712,-0.21653 0.150069,-0.18279 0.2439141,-0.413 0.2439141,-0.66611 0,-0.58137 -0.4769644,-1.05833 -1.0583334,-1.05833 z m 0,0.52916 c 0.2953888,0 0.5291667,0.23378 0.5291667,0.52917 0,0.29538 -0.2337779,0.52917 -0.5291667,0.52917 -0.2953808,0 -0.5291666,-0.23379 -0.5291666,-0.52917 0,-0.29539 0.2337858,-0.52917 0.5291666,-0.52917 z"></path><path style="color:#000000;font-style:normal;font-variant:normal;font-weight:normal;font-stretch:normal;font-size:medium;line-height:normal;font-family:sans-serif;font-variant-ligatures:normal;font-variant-position:normal;font-variant-caps:normal;font-variant-numeric:normal;font-variant-alternates:normal;font-feature-settings:normal;text-indent:0;text-align:start;text-decoration:none;text-decoration-line:none;text-decoration-style:solid;text-decoration-color:#000000;letter-spacing:normal;word-spacing:normal;text-transform:none;writing-mode:lr-tb;direction:ltr;text-orientation:mixed;dominant-baseline:auto;baseline-shift:baseline;text-anchor:start;white-space:normal;shape-padding:0;clip-rule:nonzero;display:inline;overflow:visible;visibility:visible;opacity:1;isolation:auto;mix-blend-mode:normal;color-interpolation:sRGB;color-interpolation-filters:linearRGB;solid-color:#000000;solid-opacity:1;vector-effect:none;fill-opacity:1;fill-rule:nonzero;stroke:none;stroke-width:0.5291667;stroke-linecap:butt;stroke-linejoin:round;stroke-miterlimit:4;stroke-dasharray:none;stroke-dashoffset:0;stroke-opacity:1;paint-order:normal;color-rendering:auto;image-rendering:auto;shape-rendering:auto;text-rendering:auto;enable-background:accumulate" d="m 12.964578,283.24165 c -0.581361,0 -1.058333,0.47696 -1.058333,1.05833 0,0.25311 0.09384,0.48332 0.243914,0.66611 -0.16461,0.057 -0.32013,0.12643 -0.455271,0.21653 -0.338839,0.22588 -0.582393,0.56978 -0.582393,0.96944 v 1.5875 a 0.26458337,0.26458337 0 0 0 0.264583,0.26459 0.26458337,0.26458337 0 0 0 0.264584,-0.26459 v -1.5875 c -3e-5,-0.18665 0.110675,-0.37145 0.345715,-0.52813 0.235029,-0.15669 0.5848,-0.26562 0.977201,-0.26562 0.392409,0 0.741127,0.10893 0.976167,0.26562 0.23504,0.15668 0.34675,0.34148 0.34675,0.52813 v 0.26459 c 0,0.14612 0.118465,0.26458 0.264583,0.26458 0.14613,0 0.264584,-0.11846 0.264584,-0.26458 v -0.26459 c 0,-0.39966 -0.242004,-0.74356 -0.580843,-0.96944 -0.13549,-0.0903 -0.29142,-0.16003 -0.456821,-0.21705 0.149918,-0.18274 0.243914,-0.41263 0.243914,-0.66559 0,-0.58137 -0.476965,-1.05833 -1.058334,-1.05833 z m 0,0.52916 c 0.295389,0 0.529167,0.23378 0.529167,0.52917 0,0.29538 -0.233778,0.52917 -0.529167,0.52917 -0.295381,0 -0.529166,-0.23379 -0.529166,-0.52917 0,-0.29539 0.233785,-0.52917 0.529166,-0.52917 z"></path><path style="display:inline;opacity:1;fill-opacity:1;stroke:none;stroke-width:0.52916676;stroke-linecap:butt;stroke-linejoin:round;stroke-miterlimit:4;stroke-dasharray:none;stroke-dashoffset:0;stroke-opacity:1;paint-order:normal" d="m 5.82083,288.7979 a 0.26458335,0.26458335 0 0 1 -0.26459,0.26458 0.26458335,0.26458335 0 0 1 -0.26458,-0.26458 0.26458335,0.26458335 0 0 1 0.26458,-0.26458 0.26458335,0.26458335 0 0 1 0.26459,0.26458 z"></path><path style="display:inline;opacity:1;fill-opacity:1;stroke:none;stroke-width:0.52916676;stroke-linecap:butt;stroke-linejoin:round;stroke-miterlimit:4;stroke-dasharray:none;stroke-dashoffset:0;stroke-opacity:1;paint-order:normal" d="m 11.64166,288.7979 a 0.26458335,0.26458335 0 0 1 -0.26458,0.26458 0.26458335,0.26458335 0 0 1 -0.26458,-0.26458 0.26458335,0.26458335 0 0 1 0.26458,-0.26458 0.26458335,0.26458335 0 0 1 0.26458,0.26458 z"></path><path style="display:inline;opacity:1;fill-opacity:1;stroke:none;stroke-width:0.52916676;stroke-linecap:butt;stroke-linejoin:round;stroke-miterlimit:4;stroke-dasharray:none;stroke-dashoffset:0;stroke-opacity:1;paint-order:normal" d="m 5.82083,295.41249 a 0.26458335,0.26458335 0 0 1 -0.26458,0.26458 0.26458335,0.26458335 0 0 1 -0.26459,-0.26458 0.26458335,0.26458335 0 0 1 0.26459,-0.26459 0.26458335,0.26458335 0 0 1 0.26458,0.26459 z"></path><path style="display:inline;opacity:1;fill-opacity:1;stroke:none;stroke-width:0.52916676;stroke-linecap:butt;stroke-linejoin:round;stroke-miterlimit:4;stroke-dasharray:none;stroke-dashoffset:0;stroke-opacity:1;paint-order:normal" d="m 11.64166,295.41249 a 0.26458335,0.26458335 0 0 1 -0.26458,0.26458 0.26458335,0.26458335 0 0 1 -0.26459,-0.26458 0.26458335,0.26458335 0 0 1 0.26459,-0.26459 0.26458335,0.26458335 0 0 1 0.26458,0.26459 z"></path></g></svg>