<svg xmlns="http://www.w3.org/2000/svg" xmlns:xlink="http://www.w3.org/1999/xlink" height="100px" width="100px" version="1.1" x="0px" y="0px" viewBox="0 0 64 64" style="enable-background:new 0 0 64 64;" xml:space="preserve"><g><g><path d="M61,29C61,13.009,47.991,0,32,0S3,13.009,3,29c0,5.163,1.387,10.224,4,14.663V49c0,2.206,1.794,4,4,4h4    c2.206,0,4-1.794,4-4V29c0-2.206-1.794-4-4-4h-4c-0.617,0-1.194,0.152-1.717,0.402C11.016,14.423,20.541,6,32,6    s20.984,8.423,22.717,19.402C54.194,25.152,53.617,25,53,25h-4c-2.206,0-4,1.794-4,4v20c0,2.206,1.794,4,4,4h4    c2.206,0,4-1.794,4-4v-5.337C59.613,39.224,61,34.163,61,29z M17,29v20c0,1.103-0.897,2-2,2h-1V27h1C16.103,27,17,27.897,17,29z     M11,27h1v24h-1c-1.103,0-2-0.897-2-2V29C9,27.897,9.897,27,11,27z M32,4C18.215,4,7,15.215,7,29v10.155    C5.692,35.943,5,32.498,5,29C5,14.112,17.112,2,32,2s27,12.112,27,27c0,3.498-0.692,6.943-2,10.155V29C57,15.215,45.785,4,32,4z     M47,49V29c0-1.103,0.897-2,2-2h1v24h-1C47.897,51,47,50.103,47,49z M55,49c0,1.103-0.897,2-2,2h-1V27h1c1.103,0,2,0.897,2,2V49z"/><path d="M35,25h-6c-3.86,0-7,3.14-7,7v14c0,3.86,3.14,7,7,7v5h-1c-2.757,0-5,2.243-5,5c0,0.552,0.448,1,1,1h16    c0.552,0,1-0.448,1-1c0-2.757-2.243-5-5-5h-1v-5c3.86,0,7-3.14,7-7V32C42,28.14,38.86,25,35,25z M38.829,62H25.171    c0.413-1.164,1.525-2,2.829-2h8C37.304,60,38.416,60.836,38.829,62z M33,58h-2v-5h2V58z M36,34h4v2h-4c-0.552,0-1,0.448-1,1    s0.448,1,1,1h4v2h-4c-0.552,0-1,0.448-1,1s0.448,1,1,1h4v2h-4c-0.552,0-1,0.448-1,1s0.448,1,1,1h4c0,2.757-2.243,5-5,5h-6    c-2.757,0-5-2.243-5-5h4c0.552,0,1-0.448,1-1s-0.448-1-1-1h-4v-2h4c0.552,0,1-0.448,1-1s-0.448-1-1-1h-4v-2h4c0.552,0,1-0.448,1-1    s-0.448-1-1-1h-4v-2h4c0.552,0,1-0.448,1-1s-0.448-1-1-1h-4c0-2.757,2.243-5,5-5v2c0,0.552,0.448,1,1,1c0.552,0,1-0.448,1-1v-2h2    v2c0,0.552,0.448,1,1,1c0.552,0,1-0.448,1-1v-2c2.757,0,5,2.243,5,5h-4c-0.552,0-1,0.448-1,1S35.448,34,36,34z"/></g></g></svg>